<svg width="31" height="18" viewBox="0 0 31 18" version="1.1" xmlns="http://www.w3.org/2000/svg" xmlns:xlink="http://www.w3.org/1999/xlink">
<title>1486477623_vkontakte</title>
<desc>Created using Figma</desc>
<g id="Canvas" transform="translate(1662 -11270)">
<g id="1486477623_vkontakte">
<g id="g5608">
<g id="path9">
<use xlink:href="#path0_fill" transform="translate(-1662 11270)" fill="#BDBDBD"/>
</g>
</g>
</g>
</g>
<defs>
<path id="path0_fill" fill-rule="evenodd" d="M 15.1675 17.9247L 17.0203 17.9247C 17.0203 17.9247 17.5798 17.8618 17.8658 17.5485C 18.1291 17.2606 18.1207 16.7202 18.1207 16.7202C 18.1207 16.7202 18.0841 14.1897 19.2383 13.8172C 20.3759 13.4501 21.8366 16.2627 23.3848 17.3442C 24.5556 18.1625 25.4453 17.9834 25.4453 17.9834L 29.5852 17.9247C 29.5852 17.9247 31.7504 17.7886 30.7237 16.0555C 30.6397 15.914 30.1254 14.7737 27.6457 12.4311C 25.0492 9.97839 25.3973 10.3754 28.5244 6.13356C 30.4285 3.55024 31.1901 1.97358 30.9519 1.2979C 30.7252 0.654423 29.3246 0.824145 29.3246 0.824145L 24.6632 0.853815C 24.6632 0.853815 24.3178 0.805779 24.0614 0.96175C 23.8111 1.11452 23.6502 1.47082 23.6502 1.47082C 23.6502 1.47082 22.9119 3.46981 21.9283 5.16985C 19.853 8.75681 19.0229 8.94669 18.6837 8.72347C 17.8944 8.20432 18.0918 6.63839 18.0918 5.52541C 18.0918 2.04903 18.6098 0.599419 17.0827 0.224373C 16.5759 0.0998609 16.2028 0.01726 14.9069 0.00397992C 13.2439 -0.0132559 11.8361 0.00935179 11.0392 0.406527C 10.509 0.671471 10.0997 1.25985 10.3493 1.29394C 10.6573 1.33576 11.3549 1.48523 11.7247 1.99769C 12.2024 2.65925 12.1856 4.14446 12.1856 4.14446C 12.1856 4.14446 12.4603 8.23672 11.5447 8.74475C 10.9163 9.09352 10.0544 8.38176 8.20375 5.12728C 7.25588 3.46049 6.53999 1.61737 6.53999 1.61737C 6.53999 1.61737 6.4023 1.27341 6.15587 1.0889C 5.85715 0.865399 5.43962 0.794759 5.43962 0.794759L 1.01015 0.823957C 1.01015 0.823957 0.345169 0.843171 0.10142 1.1375C -0.116142 1.39943 0.084023 1.94062 0.084023 1.94062C 0.084023 1.94062 3.55155 10.1981 7.47806 14.3592C 11.0793 18.1754 15.1675 17.9247 15.1675 17.9247Z"/>
</defs>
</svg>
