<svg width="24" height="24" viewBox="0 0 24 24" version="1.1" xmlns="http://www.w3.org/2000/svg" xmlns:xlink="http://www.w3.org/1999/xlink">
<title>search</title>
<desc>Created using Figma</desc>
<g id="Canvas" transform="translate(1490 -11267)">
<g id="search">
<g id="Vector">
<use xlink:href="#path0_fill" transform="translate(-1490 11273.5)" fill="#FBBB00"/>
</g>
<g id="Vector">
<use xlink:href="#path1_fill" transform="translate(-1477.74 11276.8)" fill="#518EF8"/>
</g>
<g id="Vector">
<use xlink:href="#path2_fill" transform="translate(-1488.57 11281.5)" fill="#28B446"/>
</g>
<g id="Vector">
<use xlink:href="#path3_fill" transform="translate(-1488.66 11267)" fill="#F14336"/>
</g>
</g>
</g>
<defs>
<path id="path0_fill" d="M 5.31891 8.02219L 4.4835 11.1409L 1.43011 11.2055C 0.517594 9.51295 0 7.5765 0 5.51869C 0 3.5288 0.483938 1.6523 1.34175 2.5177e-07L 1.34241 2.5177e-07L 4.06078 0.498375L 5.25159 3.20044C 5.00236 3.92705 4.86652 4.70705 4.86652 5.51869C 4.86661 6.39956 5.02617 7.24355 5.31891 8.02219Z"/>
<path id="path1_fill" d="M 11.5265 -2.40326e-07C 11.6643 0.725906 11.7362 1.47558 11.7362 2.24175C 11.7362 3.10088 11.6459 3.93891 11.4738 4.74727C 10.8896 7.49803 9.36323 9.9 7.24875 11.5998L 7.24809 11.5991L 3.82416 11.4244L 3.33956 8.39934C 4.74263 7.5765 5.83912 6.2888 6.41672 4.74727L -4.34875e-07 4.74727L -4.34875e-07 -2.40326e-07L 6.51033 -2.40326e-07L 11.5265 -2.40326e-07Z"/>
<path id="path2_fill" d="M 18.0817 6.85383L 18.0824 6.85448C 16.026 8.50744 13.4136 9.49645 10.5699 9.49645C 6 9.49645 2.02683 6.94219 3.6478e-08 3.18328L 3.8888 -1.60217e-07C 4.90219 2.70459 7.5112 4.62989 10.5699 4.62989C 11.8846 4.62989 13.1163 4.27448 14.1732 3.65405L 18.0817 6.85383Z"/>
<path id="path3_fill" d="M 18.3178 2.76262L 14.4303 5.94525C 13.3365 5.26153 12.0435 4.86656 10.6582 4.86656C 7.53033 4.86656 4.87252 6.88017 3.90989 9.68175L 0.000656273 6.48131L 2.57492e-08 6.48131C 1.99716 2.63077 6.02044 0 10.6582 0C 13.5699 0 16.2396 1.03716 18.3178 2.76262Z"/>
</defs>
</svg>
