<svg width="14" height="24" viewBox="0 0 14 24" version="1.1" xmlns="http://www.w3.org/2000/svg" xmlns:xlink="http://www.w3.org/1999/xlink">
<title>ok-ru</title>
<desc>Created using Figma</desc>
<g id="Canvas" transform="translate(1542 -11267)">
<g id="ok-ru">
<g id="Vector">
<use xlink:href="#path0_fill" transform="translate(-1542 11267)" fill="#BDBDBD"/>
</g>
</g>
</g>
<defs>
<path id="path0_fill" d="M 9.5249 17.4401C 10.796 17.1526 12.0199 16.6526 13.1463 15.9495C 13.999 15.4151 14.257 14.2964 13.7189 13.4464C 13.1809 12.5965 12.0546 12.3402 11.1987 12.8746C 8.64394 14.4714 5.35604 14.4683 2.80124 12.8746C 1.94548 12.3402 0.819067 12.5965 0.281048 13.4464C -0.256971 14.2933 0.00102697 15.4151 0.853676 15.9495C 1.98005 16.6526 3.20397 17.1526 4.47508 17.4401L 0.992114 20.9024C 0.277933 21.6118 0.277933 22.7586 0.992114 23.468C 1.35079 23.8211 1.81645 23.9992 2.2821 23.9992C 2.7509 23.9992 3.21655 23.8211 3.57526 23.468L 7.00156 20.065L 10.4279 23.468C 11.1421 24.1773 12.2968 24.1773 13.011 23.468C 13.7252 22.7586 13.7252 21.6087 13.011 20.9024L 9.5249 17.4401ZM 7.00156 3.63113C 8.42687 3.63113 9.58471 4.78109 9.58471 6.19667C 9.58471 7.60913 8.42687 8.75909 7.00156 8.75909C 5.57946 8.75909 4.41844 7.60913 4.41844 6.19667C 4.41844 4.78109 5.57946 3.63113 7.00156 3.63113ZM 7.00156 12.3871C 10.4405 12.3871 13.2375 9.60906 13.2375 6.19664C 13.2375 2.77803 10.4405 0 7.00156 0C 3.56265 0 0.765611 2.77803 0.765611 6.19355C 0.765611 9.60906 3.56265 12.3871 7.00156 12.3871Z"/>
</defs>
</svg>
