<svg xmlns="http://www.w3.org/2000/svg" viewBox="0 0 51.52 52.53" class="titleBlock__advantages-image">
              <defs><style>.ab48hssddff{fill:inherit;}</style></defs><g><g><path class="ab48hssddff" d="M25.63,24.92H20.35v9.36H14.54V24.92H0V21.36L15.22.43h5.14V19.92h5.28ZM14.54,12.58l.43-4h-.19L13.15,12l-5,6.48-2.4,1.82,3.07-.38h5.71Z"></path><path class="ab48hssddff" d="M30.74,20.86a13.66,13.66,0,0,1,4.34-3.72Q30,14,30,8.88A8.22,8.22,0,0,1,32.81,2.5,10.56,10.56,0,0,1,40.18,0a10.51,10.51,0,0,1,7,2.23,7.3,7.3,0,0,1,2.67,5.88q0,5.09-5,8.4a13.9,13.9,0,0,1,4.39,3.82,8.67,8.67,0,0,1,1.42,5.06,8.74,8.74,0,0,1-3,6.91,11.54,11.54,0,0,1-7.87,2.64,11.38,11.38,0,0,1-7.63-2.45,8,8,0,0,1-2.88-6.43A8.65,8.65,0,0,1,30.74,20.86Zm13.46,2.59a5.52,5.52,0,0,0-1.44-1.73,15.09,15.09,0,0,0-1.8-1.3L38.83,19.2Q34.9,21.51,34.9,25a4.46,4.46,0,0,0,1.37,3.31,5,5,0,0,0,3.62,1.34,5.31,5.31,0,0,0,3.5-1.08,3.86,3.86,0,0,0,1.3-3.14A4.3,4.3,0,0,0,44.21,23.45Zm-7.82-12.5a4.31,4.31,0,0,0,1.27,1.58,15.83,15.83,0,0,0,1.58,1.15,22.35,22.35,0,0,0,2,1.06,7,7,0,0,0,2.88-5.38,3.91,3.91,0,0,0-1.15-3,4,4,0,0,0-2.88-1.08,4.09,4.09,0,0,0-3,1.06A3.58,3.58,0,0,0,36,9,4.8,4.8,0,0,0,36.38,10.95Z"></path><path class="ab48hssddff" d="M10.82,43.27v2.05A3.94,3.94,0,0,0,11.07,47a1,1,0,0,0,1,.47A2.57,2.57,0,0,0,13.62,47V43.27H16v9H13.62V48.75a3.93,3.93,0,0,1-2.32.68,2.88,2.88,0,0,1-2.11-.69,3.31,3.31,0,0,1-.7-2.4V43.27Z"></path><path class="ab48hssddff" d="M18,43.79a9.13,9.13,0,0,1,3.78-.7,3.28,3.28,0,0,1,2.51.8A3.38,3.38,0,0,1,25,46.24q0,.61-.06,1.81t-.06,1.77a7.93,7.93,0,0,0,.32,2.47H23.26l-.38-1.24h-.09a3,3,0,0,1-2.65,1.37,2.76,2.76,0,0,1-2-.73,2.52,2.52,0,0,1-.76-1.9q0-2.9,4.56-2.9l.68,0a4.13,4.13,0,0,0,0-.61,1.3,1.3,0,0,0-.31-1,1.55,1.55,0,0,0-1.07-.3,6.62,6.62,0,0,0-2.77.52Zm4.7,5.71V48.33l-.68,0q-2.16,0-2.16,1.13a1,1,0,0,0,.3.78,1.15,1.15,0,0,0,.82.28A1.8,1.8,0,0,0,22.65,49.5Z"></path><path class="ab48hssddff" d="M33.31,51.72a4.78,4.78,0,0,1-2.88.81q-3.93,0-3.93-4.75a5.34,5.34,0,0,1,1-3.51,3.66,3.66,0,0,1,3-1.24,5.72,5.72,0,0,1,2.68.58l-.56,1.91a4,4,0,0,0-1.75-.42q-2,0-2,2.68a3.25,3.25,0,0,0,.53,1.94,1.82,1.82,0,0,0,1.58.74,3.05,3.05,0,0,0,1.75-.52Z"></path><path class="ab48hssddff" d="M35.11,44.26A4,4,0,0,1,38.24,43,3.89,3.89,0,0,1,41.4,44.3a5.24,5.24,0,0,1,1.07,3.48,5.1,5.1,0,0,1-1.11,3.51,4,4,0,0,1-3.12,1.24,3.91,3.91,0,0,1-3.17-1.28A5.21,5.21,0,0,1,34,47.77,5.07,5.07,0,0,1,35.11,44.26Zm1.75,5.53a1.5,1.5,0,0,0,1.39.76q1.82,0,1.82-2.77T38.24,45q-1.84,0-1.84,2.77A3.93,3.93,0,0,0,36.85,49.79Z"></path><path class="ab48hssddff" d="M44.09,43.29q1.87-.16,3.44-.16a5.31,5.31,0,0,1,2.8.56,1.9,1.9,0,0,1,.85,1.71,2.25,2.25,0,0,1-.38,1.26,2.09,2.09,0,0,1-1.12.83v.07a2.07,2.07,0,0,1,1.84,2.18,2.22,2.22,0,0,1-1.05,2,6.34,6.34,0,0,1-3.3.67,28.71,28.71,0,0,1-3.08-.16Zm3.53,3.65a1.53,1.53,0,0,0,.95-.28.86.86,0,0,0,.37-.71.82.82,0,0,0-.33-.72A2,2,0,0,0,47.47,45q-.34,0-1.1.05v1.89Zm-1.24,3.53a6.21,6.21,0,0,0,1,.07,2.65,2.65,0,0,0,1.38-.27.91.91,0,0,0,.42-.83q0-1.06-1.6-1.06H46.37Z"></path></g></g>
            </svg>
