<svg xmlns="http://www.w3.org/2000/svg" viewBox="0 0 87 105">
  <g id="shield" >
    <path fill="#BDBDBD" d="M84.8,18.6c-6.8,0-11.9-4-17.4-8.2C61.2,5.5,54.1,0,43.5,0C32.9,0,25.8,5.5,19.6,10.4
  		C14.1,14.6,9,18.6,2.2,18.6c-1.2,0-2.2,1-2.2,2.2c0,25.5,3.2,42.5,10.3,55.1c7,12.5,17.5,20.3,32.2,28.8c0.3,0.2,0.7,0.3,1.1,0.3
  		s0.8-0.1,1.1-0.3c14.6-8.5,25.1-16.3,32.2-28.8C83.8,63.3,87,46.3,87,20.8C87,19.6,86,18.6,84.8,18.6z M43.5,100.3
  		C17.3,84.9,4.7,71.6,4.4,22.9c7.2-0.7,12.6-4.9,17.9-9c6-4.6,12.2-9.5,21.3-9.5c9.1,0,15.3,4.8,21.3,9.5c5.3,4.1,10.7,8.3,17.9,9
  		C82.3,71.6,69.7,84.9,43.5,100.3z"/>
  	<path fill="#BDBDBD" d="M17.8,25c-0.6-1.1-1.9-1.5-2.9-0.9c-0.3,0.1-0.5,0.3-0.8,0.4c-1.1,0.5-1.5,1.9-1,2.9c0.9,1.8,2.6,1.1,2.9,1
  		c0.3-0.2,0.6-0.3,0.9-0.5C17.9,27.4,18.3,26,17.8,25z"/>
  	<path fill="#BDBDBD" d="M75.2,42.1c0.1,0,0.1,0,0.2,0c1.1,0,2.1-0.9,2.2-2c0-0.3,0-0.6,0.1-0.8c0.1-1.2-0.8-2.3-2-2.4
  		c-1.2-0.1-2.2,0.8-2.4,2c0,0.3,0,0.5-0.1,0.8C73.1,41,74,42,75.2,42.1z"/>
  	<path fill="#BDBDBD" d="M22.1,24.2c0.4,0,0.9-0.1,1.3-0.4c1.3-0.9,2.5-1.9,3.7-2.8c5.6-4.3,10.3-7.9,16.5-7.9c1.2,0,2.2-1,2.2-2.2
  		c0-1.2-1-2.2-2.2-2.2c-7.6,0-13.2,4.3-19.1,8.8c-1.2,0.9-2.4,1.8-3.6,2.7c-1,0.7-1.2,2.1-0.5,3.1C20.7,23.9,21.4,24.2,22.1,24.2z"
  		/>
  	<path fill="#BDBDBD" d="M43.5,90.1C37.9,86.6,31.2,82,26.1,76c-0.8-0.9-2.1-1-3.1-0.3c-0.9,0.8-1,2.2-0.3,3.1
  		c5.8,6.9,13.5,12,19.5,15.7c0,0,0,0,0,0c0.1,0,0.1,0.1,0.2,0.1c0,0,0.1,0,0.1,0c0,0,0.1,0,0.1,0.1c0,0,0.1,0,0.1,0c0,0,0.1,0,0.1,0
  		c0,0,0.1,0,0.1,0c0.1,0,0.1,0,0.2,0c0,0,0.1,0,0.1,0c0,0,0,0,0,0c0,0,0,0,0,0c0,0,0.1,0,0.1,0c0.1,0,0.1,0,0.2,0c0,0,0.1,0,0.1,0
  		c0,0,0.1,0,0.1,0c0,0,0.1,0,0.1,0c0,0,0.1,0,0.1-0.1c0,0,0.1,0,0.1,0c0.1,0,0.1-0.1,0.2-0.1c0,0,0,0,0,0c6-3.7,13.7-8.8,19.5-15.7
  		c6.6-7.8,10.8-18.4,12.7-32.4c0.2-1.2-0.7-2.3-1.9-2.5c-1.2-0.2-2.3,0.7-2.5,1.9C70.7,59,66.9,68.8,60.8,76
  		C55.8,82,49,86.6,43.5,90.1z"/>
  	<path fill="#BDBDBD" d="M57.5,27.4L34.8,50.2l-5.4-5.4c-1.3-1.3-3.1-2.1-5-2.1c-1.9,0-3.7,0.7-5,2.1c-2.8,2.8-2.8,7.3,0,10.1
  		l10.4,10.5c0,0,0.3,0.2,0.3,0.3c0,0,2.6,2.5,4.7,2.5c2.2,0,5.1-2.8,5.1-2.8l27.7-27.8c2.8-2.8,2.8-7.3,0-10.1
  		c-1.3-1.3-3.1-2.1-5-2.1C60.6,25.3,58.9,26,57.5,27.4z M64.5,34.3c0,0-27.7,27.9-27.7,27.9c0,0-1.2,0.9-2.1,0.9
  		c-0.8,0-1.6-0.8-1.6-0.8L22.5,51.7c-1.1-1.1-1.1-2.8,0-3.9c0.6-0.6,1.4-0.9,2.3-0.8c0.6,0.1,1.2,0.4,1.7,0.9l6.8,6.9
  		c0.4,0.4,1,0.6,1.5,0.6c0.6,0,1.1-0.2,1.5-0.6l24.2-24.4c0.5-0.5,1.2-0.8,1.9-0.8c0.7,0,1.4,0.3,1.9,0.8
  		C65.5,31.5,65.5,33.3,64.5,34.3z"/>
  </g>

</svg>
