<svg width="11" height="10" viewBox="0 0 11 10" version="1.1" xmlns="http://www.w3.org/2000/svg" xmlns:xlink="http://www.w3.org/1999/xlink">
<title>Vector 6</title>
<desc>Created using Figma</desc>
<g id="Canvas" transform="translate(11408 -10818)">
<g id="Vector 6">
<use xlink:href="#path0_stroke" transform="translate(-11407 10819)" fill="#0054A6"/>
</g>
</g>
<defs>
<path id="path0_stroke" d="M 0 3C -0.552285 3 -1 3.44772 -1 4C -1 4.55228 -0.552285 5 0 5L 0 3ZM 8 4L 8.8 4.6L 9.25 4L 8.8 3.4L 8 4ZM 5.8 -0.6C 5.46863 -1.04183 4.84183 -1.13137 4.4 -0.8C 3.95817 -0.468629 3.86863 0.158172 4.2 0.6L 5.8 -0.6ZM 4.2 7.4C 3.86863 7.84183 3.95817 8.46863 4.4 8.8C 4.84183 9.13137 5.46863 9.04183 5.8 8.6L 4.2 7.4ZM 0 5L 8 5L 8 3L 0 3L 0 5ZM 8.8 3.4L 5.8 -0.6L 4.2 0.6L 7.2 4.6L 8.8 3.4ZM 7.2 3.4L 4.2 7.4L 5.8 8.6L 8.8 4.6L 7.2 3.4Z"/>
</defs>
</svg>
