<svg xmlns="http://www.w3.org/2000/svg" viewBox="0 0 152 118"><defs><style>.cls-1{fill:#e0e0e0;}</style></defs><g ><g ><g ><path class="cls-1" d="M48.62,43c4.22,1.88,10.83,2.22,10.83,2.22a31.54,31.54,0,0,0,11.73-1.93c.72-.45.74-.81.74-.81.5-4.34-1.64-9.22-1.64-9.22-.65-1.43-4.58-2.67-4.58-2.67-2.1-.74-2.11-1.48-2.11-1.48-4.12,8.12-7.25,0-7.25,0-.29,1.1-4.53,2.38-4.53,2.38A4.1,4.1,0,0,0,50,32.68c-1.83,2.72-2,8.77-2,8.77C48,42.83,48.62,43,48.62,43Z"/><path class="cls-1" d="M55.3,24.79c.32,2.61,2.56,5.32,4.6,5.32,2.34,0,4.57-2.85,4.92-5.32a1.19,1.19,0,0,0,.43-.84s.5-1.79-.16-1.6c.23-.69,1-3.38-.49-5.05a4.69,4.69,0,0,0-2.39-1.45L62,15.7l.09.12-.3-.07-.31-.3a2.52,2.52,0,0,1,.22.28l-.13,0a2.4,2.4,0,0,0-.29-.36s0,.09.11.24c-.31-.23-.94-.76-.94-1.35a1.74,1.74,0,0,0-.62.52,1.61,1.61,0,0,1,.49-.74,1.77,1.77,0,0,0-.49.42,1.57,1.57,0,0,0-.75.9L59,15.25a2.06,2.06,0,0,1,.28-.45,2.08,2.08,0,0,0-.34.42l-.27-.14a2.12,2.12,0,0,1,.33-.46,2,2,0,0,0-.3.3c0-.18,0-.38-.51.22A6.23,6.23,0,0,0,55,18.44s-.42,1,.14,3.95c-.79-.37-.25,1.56-.25,1.56A1.19,1.19,0,0,0,55.3,24.79Zm4.49-10.27a1.6,1.6,0,0,0-.27.63l-.09,0A1.42,1.42,0,0,1,59.79,14.52Z"/><path class="cls-1" d="M151,34.82a7.45,7.45,0,0,0-4.5-3.56l-16.92-4.8a2.5,2.5,0,1,0-1.36,4.81l16.92,4.8a2.5,2.5,0,0,1,1.72,3.08l-20.45,72a2.5,2.5,0,0,1-3.06,1.73l-20.15-6h10.21a7.5,7.5,0,0,0,7.5-7.49v-92A7.5,7.5,0,0,0,113.45,0H38.54A7.5,7.5,0,0,0,31,7.49v92a7.5,7.5,0,0,0,7.5,7.49h11l-21,5.94a2.5,2.5,0,0,1-3.09-1.72l-20.45-72a2.5,2.5,0,0,1,1.72-3.08l17.47-5a2.5,2.5,0,1,0-1.36-4.81l-17.47,5A7.5,7.5,0,0,0,.29,40.52l20.45,72a7.51,7.51,0,0,0,7.2,5.45,7.56,7.56,0,0,0,2.06-.29L67.9,107H85.61L122,117.71a7.5,7.5,0,0,0,9.26-5.16l20.45-72A7.44,7.44,0,0,0,151,34.82ZM85.92,102H38.54a2.5,2.5,0,0,1-2.5-2.5v-92A2.5,2.5,0,0,1,38.54,5h74.91a2.5,2.5,0,0,1,2.5,2.5v92a2.5,2.5,0,0,1-2.5,2.5H85.92Z"/><path class="cls-1" d="M80,42h26a1,1,0,0,0,0-2H80a1,1,0,0,0,0,2Z"/><path class="cls-1" d="M96,76H82a1,1,0,1,0,0,2H96a1,1,0,0,0,0-2Z"/><path class="cls-1" d="M61,86H44a1,1,0,1,0,0,2H61a1,1,0,0,0,0-2Z"/><path class="cls-1" d="M44,78H58a1,1,0,0,0,0-2H44a1,1,0,0,0,0,2Z"/><path class="cls-1" d="M108,76h-7a1,1,0,1,0,0,2h7a1,1,0,0,0,0-2Z"/><path class="cls-1" d="M62,78h7a1,1,0,0,0,0-2H62a1,1,0,1,0,0,2Z"/><path class="cls-1" d="M72,86H65a1,1,0,1,0,0,2h7a1,1,0,0,0,0-2Z"/><path class="cls-1" d="M44,83H54a1,1,0,0,0,0-2H44a1,1,0,0,0,0,2Z"/><path class="cls-1" d="M73,76a1,1,0,1,0,0,2h5a1,1,0,0,0,0-2Z"/><path class="cls-1" d="M63,81H58a1,1,0,1,0,0,2h5a1,1,0,0,0,0-2Z"/><path class="cls-1" d="M81,86H76a1,1,0,1,0,0,2h5a1,1,0,0,0,0-2Z"/><path class="cls-1" d="M85,81H67a1,1,0,1,0,0,2H85a1,1,0,0,0,0-2Z"/><path class="cls-1" d="M80,38H93a1,1,0,0,0,0-2H80a1,1,0,0,0,0,2Z"/><path class="cls-1" d="M81,30h5a2,2,0,0,0,0-4H81a2,2,0,0,0,0,4Z"/><path class="cls-1" d="M107,26H93a2,2,0,0,0,0,4h14a2,2,0,0,0,0-4Z"/><path class="cls-1" d="M101.09,62.68l.69.36A2,2,0,0,0,104.67,61l-.13-.83.59-.61A2,2,0,0,0,104,56.16l-.8-.13-.36-.71a2,2,0,0,0-3.57,0l-.36.71-.8.13A2,2,0,0,0,97,59.53l.59.61L97.5,61A2,2,0,0,0,100.39,63Z"/><path class="cls-1" d="M91.74,56.16l-.8-.13-.36-.71a2,2,0,0,0-3.57,0l-.36.71-.8.13a2,2,0,0,0-1.11,3.37l.59.61-.13.83A2,2,0,0,0,88.1,63l.69-.36.69.36A2,2,0,0,0,92.38,61l-.13-.83.59-.61A2,2,0,0,0,91.74,56.16Z"/><path class="cls-1" d="M72.45,59.53l.59.61-.13.83A2,2,0,0,0,75.8,63l.69-.36.69.36A2,2,0,0,0,80.08,61L80,60.13l.59-.61a2,2,0,0,0-1.11-3.37l-.8-.13-.36-.71a2,2,0,0,0-3.57,0l-.36.71-.8.13A2,2,0,0,0,72.45,59.53Z"/><path class="cls-1" d="M63.51,63l.69-.36.69.36A2,2,0,0,0,67.79,61l-.13-.83.59-.61a2,2,0,0,0-1.11-3.37l-.8-.13L66,55.32a2,2,0,0,0-3.57,0l-.36.71-.8.13a2,2,0,0,0-1.11,3.37l.59.61-.13.83A2,2,0,0,0,63.51,63Z"/><path class="cls-1" d="M48.46,60.13l-.13.83A2,2,0,0,0,51.22,63l.69-.36.69.36A2,2,0,0,0,55.5,61l-.13-.83.59-.61a2,2,0,0,0-1.11-3.37l-.8-.13-.36-.71a2,2,0,0,0-3.57,0l-.36.71-.8.13a2,2,0,0,0-1.11,3.37Z"/></g></g></g></svg>
