
<!-- Одежда -->
<svg class="icon-pack" viewBox="0 0 48 48" version="1.1" xmlns="http://www.w3.org/2000/svg" xmlns:xlink="http://www.w3.org/1999/xlink">

	<g id="icon-cart">
		<path fill="inherit" d="M17.09,38.38a5,5,0,0,0-2.72.81,4.82,4.82,0,0,0-1.8,2.16,4.73,4.73,0,0,0-.28,2.78,4.78,4.78,0,0,0,1.34,2.46,4.92,4.92,0,0,0,2.5,1.32A5,5,0,0,0,19,47.62a4.87,4.87,0,0,0,2.19-1.77,4.74,4.74,0,0,0-.61-6.07A4.93,4.93,0,0,0,17.09,38.38Z"/>
		<path fill="inherit" d="M40.29,38.38a5,5,0,0,0-2.72.81,4.82,4.82,0,0,0-1.8,2.16,4.73,4.73,0,0,0-.28,2.78,4.78,4.78,0,0,0,1.34,2.46,4.92,4.92,0,0,0,2.5,1.32,5,5,0,0,0,2.83-.27,4.87,4.87,0,0,0,2.19-1.77,4.74,4.74,0,0,0-.61-6.07A4.93,4.93,0,0,0,40.29,38.38Z"/>
		<path fill="inherit" d="M48,9.39h-.05c0-5.31-5.4-5.31-11.62-4.94C26.87,5.06,14.94,6,14.94,6S14.46,0,8.5,0H1.59S0,.19,0,2.59,1.49,5.06,1.49,5.06H6.75c6.75,0,5.09,29.71,5.09,29.71s21.94-.44,22.26-.33S48,35.5,48,9.39Z"/>
	</g>
</svg>
