<svg xmlns="http://www.w3.org/2000/svg">
  <symbol id="card" viewBox="0 0 105 105"><g ><g ><g ><path  d="M102.21,36,69,2.78a9.55,9.55,0,0,0-13.48,0L2.78,55.49A9.55,9.55,0,0,0,2.78,69l4.1,4.1h0l27.55,27.56H30.62a2.19,2.19,0,0,0,0,4.38H74.37a2.19,2.19,0,0,0,0-4.37H51.1l51.11-51.11A9.54,9.54,0,0,0,102.21,36ZM99.12,46.42l-52.7,52.7a5.12,5.12,0,0,1-3.64,1.5h0a5.12,5.12,0,0,1-3.64-1.5l-27.6-27.6L62.14,20.91A2.19,2.19,0,1,0,59,17.81L8.43,68.43,5.88,65.87a5.18,5.18,0,0,1,0-7.29l52.7-52.7a5.18,5.18,0,0,1,7.29,0L77.7,17.71,27.09,68.33a2.19,2.19,0,1,0,3.09,3.09L80.8,20.8,99.12,39.13A5.16,5.16,0,0,1,99.12,46.42Z"/><path d="M53.85,63.18a2.19,2.19,0,0,0-3.09,0L33.54,80.39a2.19,2.19,0,1,0,3.09,3.09L53.85,66.27A2.19,2.19,0,0,0,53.85,63.18Z"/><path d="M46.8,79.52l-7.06,7.06a2.19,2.19,0,1,0,3.09,3.09l7.06-7.06a2.19,2.19,0,1,0-3.09-3.09Z"/><path  d="M53.37,73l-.93.93A2.19,2.19,0,1,0,55.53,77l.93-.93A2.19,2.19,0,1,0,53.37,73Z"/><path  d="M83.51,33.59a2.19,2.19,0,0,0-3.09,0l-9.28,9.28a2.19,2.19,0,0,0,0,3.09l6.19,6.19a2.19,2.19,0,0,0,3.09,0l9.28-9.28a2.19,2.19,0,0,0,0-3.09ZM78.87,47.51l-3.09-3.09L82,38.23l3.09,3.09Z"/><path d="M65.69,16.44a2.18,2.18,0,0,0,1.55-.64l.93-.93a2.19,2.19,0,1,0-3.09-3.09l-.93.93a2.19,2.19,0,0,0,1.55,3.73Z"/><path d="M22,73.43l-.93.93a2.19,2.19,0,0,0,3.09,3.09l.93-.93A2.19,2.19,0,1,0,22,73.43Z"/></g></g></g>
  </symbol>
  <symbol id="deli" viewBox="0 0 105 105"><g ><g ><g ><path d="M26.44,69.19a2.19,2.19,0,0,0-3.08.26c-.31.36-.61.73-.89,1.09a2.19,2.19,0,1,0,3.45,2.7c.25-.31.51-.64.78-1A2.19,2.19,0,0,0,26.44,69.19Z"/><path    d="M52.49,13.13c.37,0,.75,0,1.1,0h.15a2.19,2.19,0,0,0,.14-4.37c-.45,0-.92,0-1.39,0a2.19,2.19,0,0,0,0,4.38Z"/><path  d="M102.81,100.63H99.53V94.06A47,47,0,0,0,75.77,53.19a52.88,52.88,0,0,0,2.31-9.85c.12-.71.24-1.31.39-2s.33-1.59.54-2.78h1.52a2.19,2.19,0,0,0,2.19-2.19,8.68,8.68,0,0,0-2.58-6.12l0-.15c.13-1.13.17-1.49.18-1.67a22.82,22.82,0,0,0-.63-7.64A29.35,29.35,0,0,0,69.29,5.47a28.5,28.5,0,0,0-33.58,0A29.35,29.35,0,0,0,25.3,20.8a22.52,22.52,0,0,0-.64,7.46c0,.22.06.76.17,1.86l0,.16a8.67,8.67,0,0,0-2.57,6.1,2.19,2.19,0,0,0,2.19,2.19H26c.2,1.17.38,2,.54,2.78s.27,1.29.39,2a52.88,52.88,0,0,0,2.31,9.85A47,47,0,0,0,5.47,94.06v6.56H2.19a2.19,2.19,0,0,0,0,4.38H102.81a2.19,2.19,0,1,0,0-4.37ZM29.49,22.05c3.26-10.9,12.07-17.68,23-17.68s19.75,6.77,23,17.68A17.17,17.17,0,0,1,76,27.23a28.83,28.83,0,0,0-4.31-1.84,14.24,14.24,0,0,0-.58-2.75A19.85,19.85,0,0,0,60.68,10.47a2.19,2.19,0,0,0-1.82,4A15.53,15.53,0,0,1,67,24l0,.1A69.26,69.26,0,0,0,52.5,22.66c-8.81,0-17.67,1.46-23.5,4.57A17.17,17.17,0,0,1,29.49,22.05ZM27.33,34.19C28.7,32,31.88,30.55,34,29.78,38.76,28,45.51,27,52.5,27S66.24,28,71,29.78c2.1.77,5.28,2.23,6.65,4.4Zm47.24,4.38c-.14.74-.26,1.33-.38,1.88-.15.71-.29,1.38-.42,2.18-1.84,11.16-3,11.89-7.87,15-.81.52-1.73,1.1-2.76,1.8a20.15,20.15,0,0,1-21.28,0c-1-.69-1.95-1.28-2.76-1.8-4.88-3.1-6-3.84-7.87-15-.13-.8-.27-1.47-.42-2.18-.12-.55-.24-1.15-.38-1.89Zm4.18,62.06H26.25V91.87H50.31v4.38a2.19,2.19,0,0,0,4.38,0V91.87H78.75v8.75ZM30.3,87.5l5.47-4.37H50.31V87.5Zm24.39,0V83.12H69.23L74.7,87.5Zm40.47,13.12h-12V89.79s0-.07,0-.1a2.18,2.18,0,0,0-.8-1.68h0l-.1-.08L71.36,79.23A2.19,2.19,0,0,0,70,78.75H35a2.19,2.19,0,0,0-1.37.48L22.7,88h0l-.06,0-.09.08-.05.05-.08.09,0,.06-.08.1,0,.05-.09.15,0,.08,0,.09,0,.09L22,89l0,.1,0,.1,0,.13,0,.13v.08s0,.09,0,.13,0,0,0,0v10.94h-12V94.06A42.5,42.5,0,0,1,31.35,57,16.24,16.24,0,0,0,35,60.16a38.61,38.61,0,0,0-6.1,3.93,2.19,2.19,0,1,0,2.71,3.44A34.23,34.23,0,0,1,37.12,64l2.08-1.07.27.18.13.08a25.65,25.65,0,0,0,12.89,3.68h0a25.66,25.66,0,0,0,12.89-3.68l.13-.08c1-.68,1.91-1.26,2.72-1.77A21.33,21.33,0,0,0,73.65,57,42.5,42.5,0,0,1,95.16,94.06Z"/></g></g></g>
  </symbol>
  <symbol id="like" viewBox="0 0 105 105"><g ><g ><g ><path  d="M103.17,38.92A52.29,52.29,0,0,0,52.64,0,52.77,52.77,0,0,0,7,26.23a52.51,52.51,0,0,0,24.42,74.39h-.81a2.19,2.19,0,0,0,0,4.38H74.38a2.19,2.19,0,0,0,0-4.38h-1a52.27,52.27,0,0,0,29.77-61.7Zm-9,37.66A48.1,48.1,0,1,1,76.57,10.79,48.32,48.32,0,0,1,94.2,76.58Z"/><path  d="M42.26,90.57A39.51,39.51,0,0,1,14.4,62.7a2.19,2.19,0,1,0-4.23,1.13,43.9,43.9,0,0,0,31,31,2.19,2.19,0,0,0,1.13-4.23Z"/><path  d="M63.86,10.2a2.19,2.19,0,0,0-1.13,4.23A39.51,39.51,0,0,1,90.58,42.3a2.19,2.19,0,1,0,4.23-1.13A43.9,43.9,0,0,0,63.86,10.2Z"/><path  d="M51.19,91.89c-.55,0-1.1,0-1.64-.09a2.19,2.19,0,0,0-.33,4.37c.6,0,1.21.08,1.82.1h.08a2.19,2.19,0,0,0,.07-4.38Z"/><path  d="M53.81,13.12c.55,0,1.1,0,1.64.09h.16a2.19,2.19,0,0,0,.16-4.37c-.6,0-1.21-.08-1.82-.1a2.19,2.19,0,0,0-.15,4.38Z"/><path  d="M74.58,40.07H62.9c.94-4.44,1.56-9.16-1-12.64-1.7-2.34-4.58-3.71-8.58-4.09l-.42,0a4.54,4.54,0,0,0-4.48,4.08c-.75,7.87-2.88,12.28-5.06,14.25a2.19,2.19,0,0,0-2.1-1.58H27.39a2.19,2.19,0,0,0-2.19,2.19V70.73a2.19,2.19,0,0,0,2.19,2.19H41.3a2.19,2.19,0,0,0,2.12-1.65,11,11,0,0,0,6.07,1.65H72.61a4.63,4.63,0,0,0,4.53-4.3l2.53-22.48a5.64,5.64,0,0,0-1.23-4.47A5,5,0,0,0,74.58,40.07Zm-35.48,5V68.54H29.58V53.2h4.77a2.19,2.19,0,0,0,0-4.38H29.58V44.45h9.53Zm36.21.59L72.79,68.13a.66.66,0,0,1-.17.41H49.48c-5.22,0-6-3.83-6-6.11V46.7a11.16,11.16,0,0,0,4.83-4.1c2.37-3.38,3.88-8.35,4.49-14.8a.13.13,0,0,1,.13-.11c2.69.26,4.53,1,5.45,2.31,1.75,2.41.71,7-.2,11.09l-.15.69a2.19,2.19,0,0,0,2.14,2.66h14.4a.9.9,0,0,1,.58.14A1.58,1.58,0,0,1,75.32,45.64Z"/></g></g></g>
  </symbol>
  <symbol id="rus" viewBox="0 0 106 113"><g ><g ><path  d="M85.34,94.94a2.51,2.51,0,0,0-.17,2.28,1,1,0,0,0,1.19.58.86.86,0,0,0,.57-.84A2,2,0,0,0,85.34,94.94ZM82.2,79.82l.14,1.46L81,81.14v1.67l1.31-.14L82.2,84.2H84l-.14-1.53,1.31.14V81.14l-1.31.14L84,79.82Zm.89,5.77a.63.63,0,1,0,.64.63A.64.64,0,0,0,83.09,85.59Zm0,2.56a.63.63,0,1,0,.64.63A.64.64,0,0,0,83.09,88.15Zm0,2.6a.63.63,0,1,0,.64.63A.64.64,0,0,0,83.09,90.75Zm2.08.63a.64.64,0,1,0,.64-.63A.64.64,0,0,0,85.17,91.39Zm2.7,0a.64.64,0,1,0,.64-.63A.64.64,0,0,0,87.86,91.39Zm-4.77,2.85c-.55,0-1.91,2.69-.9,4.05a1.19,1.19,0,0,0,1.79,0C85,96.92,83.64,94.23,83.09,94.23Zm-2.25.7a2,2,0,0,0-1.59,2,.86.86,0,0,0,.57.84A1,1,0,0,0,81,97.22,2.52,2.52,0,0,0,80.84,94.94Zm-1-3.55a.64.64,0,1,0,.64-.63A.64.64,0,0,0,79.79,91.39Zm-2.63,0a.64.64,0,1,0,.64-.63A.64.64,0,0,0,77.16,91.39Zm-.63,0a5.93,5.93,0,0,1,.1-1H82V86.15h0V85.08a6.53,6.53,0,0,0-5.26,4.83,1.25,1.25,0,0,1-1,.27c-2-.23-6-.93-6-1.75a1.5,1.5,0,0,1,1.59-1.61c1.11,0,2.33.58,3.35-.84-3.63.16-.85-4.89-3.82-5.85a12.36,12.36,0,0,1-.47,4.76,6.9,6.9,0,0,0-2.26-1.51,9.22,9.22,0,0,1-.53,3.76A8.6,8.6,0,0,0,65,85.59a7.4,7.4,0,0,1,.85,5.59c-.09.43.23,1,1.16.92,1.45-.06,6.39.15,8.54,1a3,3,0,0,1,1.52,1,4.83,4.83,0,0,0,1.48,2.06A3.25,3.25,0,0,1,81.08,94c.26,0,.54.43.6.83.08-.38.71-1.42,1.41-1.42s1.26.87,1.48,1.59c.06-.46.35-1,.61-1a2.77,2.77,0,0,1,2.37,2c.33-.4,1.86-2.29,2-3.53H76.62A7,7,0,0,1,76.53,91.39Zm7.68-6.3v5.28h5.35A6.52,6.52,0,0,0,84.21,85.08ZM21.07,89.43a.44.44,0,0,0,.34,0c-.36.48-.35.8-.19,1s.42-.2,1-.83,1-.82.8-1.06-.48-.15-1,.23a.42.42,0,0,0,0-.33A2.49,2.49,0,0,0,20.45,87a.59.59,0,0,0-.22,0c.23-.36.17-.63,0-.77s-.27,0-.46.19a.81.81,0,0,0-.18-.59,31,31,0,0,0-5.89-5.3c-.56-.23-.75.09-.75.09s-.31.19-.07.74c.41.92,4.41,4.86,5.59,5.6a.84.84,0,0,0,.6.16c-.23.19-.34.29-.17.46s.43.2.78,0a.57.57,0,0,0,0,.22A2.47,2.47,0,0,0,21.07,89.43Zm-10-11.16a.59.59,0,0,0-.43.16.63.63,0,0,0-.13.58,1.45,1.45,0,0,0,.43.74,1.39,1.39,0,0,0,.91.42A.59.59,0,0,0,12.3,80c.28-.29.14-.89-.3-1.32A1.4,1.4,0,0,0,11.08,78.27ZM24,92.27c0-.4-.79-1.07-1.71-1.07-1.38,0-2,.84-2,1.27,0,.81.81.91,1.06.93A4.44,4.44,0,0,0,24,92.27Zm-1.19,2a1.54,1.54,0,0,0-.41,1.31,1.06,1.06,0,0,0,1.1.74,1.38,1.38,0,0,0,1.17-.6A4.2,4.2,0,0,0,25.05,93,4,4,0,0,0,22.82,94.29ZM10.72,75.81c-.39-.37-1.19.18-1.66-.08.21-1.14,1,.06,1.86-.77a.74.74,0,0,0,0-1c-.35.34-.89.22-.93,0,.92-2.09-.88-4.43-2.6-4.13a4,4,0,0,1,.29,2.36c.66.45.19,1.52-.54,1.21a1.33,1.33,0,0,1-.36-2.19c0-.3-.57-.37-1.14.35C6,70.29,3.45,70.7,2.92,71c-.3.53-.64,3.1.68,2.64-.7.59-.61,1.12-.31,1.14a1.36,1.36,0,0,1,2.22.29c.34.71-.73,1.2-1.21.57a4.16,4.16,0,0,1-2.4-.21c-.24,1.71,2.17,3.41,4.26,2.44.19,0,.33.56,0,.92a.76.76,0,0,0,1,0C8,78,6.73,77.2,7.87,77c.28.46-.26,1.27.13,1.64.62.6,1.41-.56,2.17-.61C10.2,77.22,11.35,76.41,10.72,75.81ZM4.26,73.17s-.4-.28.08-.78.79-.1.79-.1.45,1,.59,1.42C5.26,73.59,4.26,73.17,4.26,73.17Zm4,3c-.25,0-.84.54-1.14.25l-1.36-1.3.68-.7.68-.69L8.47,75C8.77,75.29,8.28,75.89,8.25,76.14Zm22.53,20a.45.45,0,0,0-.09-.45.15.15,0,0,0-.08-.05c-.08,0-.25.2-.41.4s-.31.37-.52.59-.42.4-.58.54-.39.34-.39.42a.15.15,0,0,0,.05.08.39.39,0,0,0,.28.1c.17,0,.55-.09,1.12-.67A2.15,2.15,0,0,0,30.79,96.12Zm0,1.56a4.78,4.78,0,0,1-.76.63,1.35,1.35,0,0,0,.87.32,1.19,1.19,0,0,0,.67-.2,1.28,1.28,0,0,0-.17-1.52A4.76,4.76,0,0,1,30.79,97.67ZM26.21,94a3.56,3.56,0,0,0-.5,2.37.56.56,0,0,0,.64.49.59.59,0,0,0,.61-.56A3.52,3.52,0,0,0,26.21,94Zm-.27-3.76s2.56,2.18,3.42,3a.65.65,0,0,0,.76.09l.57-.26a28.09,28.09,0,0,1,8.28-.9c.93,0,1.25-.49,1.16-.92A7.56,7.56,0,0,1,41,85.59a8.6,8.6,0,0,0-2.58,1.55,9.22,9.22,0,0,1-.53-3.76,6.91,6.91,0,0,0-2.26,1.51,12.36,12.36,0,0,1-.47-4.76c-3,1-.19,6-3.82,5.85,1,1.42,2.24.84,3.35.84a1.44,1.44,0,0,1,1.59,1.61c-.11.81-5,1.82-6.94,1.82a3.37,3.37,0,0,1-3-1.32,1.12,1.12,0,0,0-1-.58c-.47.07-1,.53-1,1.6,0,.76.32,2.42,1.26,2.42C26.18,92.38,26.21,91.06,25.93,90.2ZM29.08,96c.44-.46.6-.79.49-1a15,15,0,0,0-2.49-2.68,5,5,0,0,1-.18.75,3.84,3.84,0,0,1,.92,3.38,1.2,1.2,0,0,0,.22.12C28.38,96.68,28.81,96.31,29.08,96Zm-6.44-6.18a1.52,1.52,0,0,0-.28.37,3.79,3.79,0,0,1,.89.12,5.61,5.61,0,0,1,0-.87A1.42,1.42,0,0,0,22.64,89.85Zm44.51,7.81a3.14,3.14,0,0,0,1.6-2.34,4.2,4.2,0,0,1-1.82.37c-1.9,0-4.29-1-6.45-1.94a2.52,2.52,0,0,1-1.24.46c2.18.65,6.48,2.93,6.79,4.4a1.2,1.2,0,0,1-.46,1.36,14,14,0,0,0-6.7-5,3.58,3.58,0,0,1-.1.93,5.91,5.91,0,0,1-2.08-.08c1.24,1,4.49,4.5,4.84,7.16.24,1.78-1.06,1.86-1.06,1.86-.18-2.67-1.64-5.44-4.27-8.21a3.55,3.55,0,0,1-1,1,5.49,5.49,0,0,1-1.78-.68,67.16,67.16,0,0,1,.3,9.49A2,2,0,0,1,53,107.8a2,2,0,0,1-.72-1.37,67.18,67.18,0,0,1,.3-9.49,5.49,5.49,0,0,1-1.78.68,3.54,3.54,0,0,1-1-1c-2.63,2.78-4.09,5.54-4.27,8.21,0,0-1.29-.08-1.06-1.86.35-2.66,3.6-6.17,4.84-7.16a5.91,5.91,0,0,1-2.08.08,3.58,3.58,0,0,1-.1-.93,14,14,0,0,0-6.7,5A1.2,1.2,0,0,1,40,98.61c.32-1.47,4.61-3.76,6.79-4.4a2.52,2.52,0,0,1-1.24-.46c-2.16.92-4.55,1.94-6.45,1.94a4.19,4.19,0,0,1-1.82-.37,3.14,3.14,0,0,0,1.6,2.34c-2.94,2-1.12,6.64-5.06,5.77a9.09,9.09,0,0,0,6.64,4.31c-1-2.07.24-8.4,6.14-11.27-3.63,3.48-5.28,7.69-4.32,10.67.88,2.73,3.75,3.84,5.92,3.88a12.85,12.85,0,0,1,2.59-12.94c-1.36,3.57-3.27,13.1,2.25,14.92,5.52-1.83,3.61-11.35,2.25-14.92A12.85,12.85,0,0,1,57.83,111c2.16,0,5-1.15,5.92-3.88,1-3-.69-7.19-4.32-10.67,5.9,2.87,7.12,9.2,6.14,11.27a9.09,9.09,0,0,0,6.64-4.31C68.27,104.3,70.08,99.64,67.14,97.66ZM53.47,19.14a.51.51,0,1,0-.51.51A.51.51,0,0,0,53.47,19.14Zm2.58,0a.51.51,0,1,0-.51.51A.51.51,0,0,0,56,19.14ZM52,6a1,1,0,1,0,1-1A1,1,0,0,0,52,6Zm.31-2h1.3l-.14-1.52,1.42.15V1.37l-1.42.14L53.65,0h-1.3l.14,1.52-1.42-.14v1.2l1.42-.15Zm-1.46,15.2a.51.51,0,1,0-.51.51A.51.51,0,0,0,50.89,19.14ZM47.82,21a1.48,1.48,0,0,0,.49.07H57.7a1.47,1.47,0,0,0,.49-.07.83.83,0,0,0,.56-.67H47.26A.82.82,0,0,0,47.82,21Zm.52-1.88a.51.51,0,1,0-.51.51A.51.51,0,0,0,48.33,19.14Zm10.27,0a.51.51,0,1,0-.51.51A.51.51,0,0,0,58.61,19.14Zm.61-1.2a10.75,10.75,0,0,0,1.58-5.24c0-2.23-2.91-3.45-4.64-3.51-.2,3.18-1.49,8.18-3.16,8.18s-3-5-3.16-8.18c-1.73.06-4.64,1.28-4.64,3.51a10.75,10.75,0,0,0,1.58,5.24ZM53,15.78c.79,0,1.81-3.17,2.07-6.17a2.16,2.16,0,0,0-4.14,0C51.16,12.41,52.22,15.78,53,15.78ZM27.89,32c-1.53,2,.59,4.25.72,4.41s.17.06.16-.06,1.1-3.24,7.52-1.59c.14,0,.22,0,.09-.09a10.11,10.11,0,0,1-3-4.56S29.42,29.93,27.89,32Zm3.44-.42c0-.57.86-.72,1.35-.72a5,5,0,0,0,.43.85A3.28,3.28,0,0,0,31.33,31.53Zm3.4-2.65c-.43,0-.59.26-.45.71,1.47,4.78,5.49,5.92,7.08,8a5.83,5.83,0,0,1,.72-2.19c.5.79,1.86,2.28,2.74,2.46a7.54,7.54,0,0,1-.27-3.24c2.08,1.75,4.65,2.1,6,1.09-1.17,0-2.7-1.21-3.47-2.33a4.45,4.45,0,0,0,2.86-.3,4.48,4.48,0,0,1-2-1.29,4.35,4.35,0,0,0,2.89-1.5,4,4,0,0,1-2.28-.44,5.41,5.41,0,0,0,2-2.61,19.71,19.71,0,0,1-8.49,1.63Zm4.46,2.18a5.05,5.05,0,0,0-1.71,1l-.72-1.14c-.17-.28-.23-.62.36-.62h3.54C40.65,30.56,40.33,30.63,39.19,31.07ZM27.11,38.85c.37.47,1.41,1.91,3.71.62s3.47-2,3.47-2a2,2,0,0,0-.09,1.46s.07,0,.09,0c.23-.52,2.22-2,4.76-2.21-.93-.78-2-1.48-2-1.48a17.54,17.54,0,0,0-5.9,2.58c-2.72,1.7-4,1-4,1S27,38.77,27.11,38.85ZM59.58,93.13a1.83,1.83,0,0,0,.89-.53,5.08,5.08,0,0,1-3.74-2.43,6.78,6.78,0,0,1-1.62,1.66A4.24,4.24,0,0,1,53,90.27a4.24,4.24,0,0,1-2.11,1.56,6.78,6.78,0,0,1-1.62-1.66,5.08,5.08,0,0,1-3.74,2.43,1.83,1.83,0,0,0,.89.53,2.89,2.89,0,0,0,.84.13,2.19,2.19,0,0,0,.9-.18A4.06,4.06,0,0,0,48.05,95,5.08,5.08,0,0,0,50,94.7a3.16,3.16,0,0,0,.77,1.7,2,2,0,0,0,.27.24,3.75,3.75,0,0,0,2-.94,3.75,3.75,0,0,0,2,.94,2,2,0,0,0,.27-.24A3.16,3.16,0,0,0,56,94.7a3.41,3.41,0,0,0,1.49.29h.4a4.05,4.05,0,0,0-.11-1.89,2.19,2.19,0,0,0,.9.18A2.89,2.89,0,0,0,59.58,93.13Zm-17.52-36a.51.51,0,0,0-.56.55V78.3c0,2,.81,3,2.4,3h4c2.73,0,4.34.9,5.12,2,.67-1,2.54-2,5.12-2h4c1.59,0,2.4-1,2.4-3V57.64a.51.51,0,0,0-.56-.55Zm3.89,19.34a1.11,1.11,0,0,0,1.43,1,1.8,1.8,0,0,0,.23,1C46,78.78,45.29,77.5,45.95,76.42Zm14.64-6.84-.66-.69a.81.81,0,0,0-.63-.34,2.87,2.87,0,0,0-1.4.47s0,0,0,.08l1-.09a1.06,1.06,0,0,1,.79.15.66.66,0,0,1,.31.53c0,.7.61,2.18.65,2.63,0,.17-.17.23-.48,1-.22.24-.83-.52-.74-.7.35-.44.45-.72.36-1s-.21-.74-.3-1a.59.59,0,0,0-.8-.35c-1.46.46-1.68-.15-3.12.43l1.66,2.47a1.08,1.08,0,0,0-.36-.74c0-.25.57-.35.77-.12a2.29,2.29,0,0,0,1.09.79c.74.13.69,1.22,2.67,1.58a1.07,1.07,0,0,1-1,.05,1,1,0,0,0,.61.49c-.31.3-1.19-.4-1.1.3a.78.78,0,0,1,.54-.06c.4.1,1,2.26-.32,3.2.29.08.6-.06.9-.06a.38.38,0,0,1,.35.34.94.94,0,0,1,.29.36.59.59,0,0,1-.41-.07c0,.12,0,.41,0,.41a.56.56,0,0,1-.34-.12,1.29,1.29,0,0,1-.92-.09,5.81,5.81,0,0,1-1.32.24c-.25,0-.57,0-.56-.3s.08-.21.13-.37c-.21-.21-.56,0-1,0s-.8,0-.92-.14a1.06,1.06,0,0,0-.61-1.73c.68.62.59,1.63-.17,1.86a.63.63,0,0,1,.41.31c.27.11.27.29.25.38a1,1,0,0,0-.62-.17.59.59,0,0,1-.13.32.5.5,0,0,1-.25-.16c-.24-.18-1.75.16-1.84-.08s.34-.41.71-.49c-1-.34-1.78-2.07-3.25-2.36-.68-.14-1.6.16-1.6,1a.74.74,0,0,0,.73.74.47.47,0,0,0,.52-.47l-.12.09a.5.5,0,0,1-.68,0,.46.46,0,0,1,0-.64.81.81,0,0,1,.53-.28,1.33,1.33,0,0,1,1.36.54,1.15,1.15,0,0,1,.23.66c0,1-1,1.21-1.59,1.21a2.11,2.11,0,0,1-2.26-2.12,2.34,2.34,0,0,1,0-.4,2.64,2.64,0,0,1,2.43-2,2.18,2.18,0,0,0-.75-1.1.29.29,0,0,1-.09-.45,2.83,2.83,0,0,0,.39-.79,1.21,1.21,0,0,0,0-.2,5.83,5.83,0,0,1-2.21,1.13.88.88,0,0,0-.52.73,10.63,10.63,0,0,0-.06,1.1.56.56,0,0,0,.11.26,2.46,2.46,0,0,1,.43,1c0,.18-1,.2-1,.06,0-.67-.47-.93-.42-1.37a5.84,5.84,0,0,0,0-2.06.38.38,0,0,1,.19-.38l.62-.43a1.3,1.3,0,0,0,.57-1.38.93.93,0,0,0-.08-.22,3.7,3.7,0,0,1-.41-1.6.39.39,0,1,0-.76,0,2.47,2.47,0,0,0,.25.65,2.21,2.21,0,0,1-2.2,3.16c1.62-.54-.38-2.54-.38-4a1.58,1.58,0,0,1,1.61-1.59,3,3,0,0,1,1.83.73c.49-.75,2-.88,2.54-1a1.35,1.35,0,0,1,.27-1.07.1.1,0,0,0,0-.08,4.34,4.34,0,0,0-.27-.56,2.33,2.33,0,0,0-.57,1.51,4.93,4.93,0,0,1-3-1,6.22,6.22,0,0,1,.86-1.43A4.28,4.28,0,0,0,46.35,66a3.9,3.9,0,0,0-.75-.42,7.37,7.37,0,0,1,1.54-2.05,4.17,4.17,0,0,0-2,1.94,3.59,3.59,0,0,0-.86,0c1-1.17,1.45-3.48,3.64-4-.55,2.14.81,3,1.75,2.45a1.43,1.43,0,0,1-.28,0c-1.83-.45-.75-2.89-1.19-3.4a.75.75,0,0,1-.23-.61.49.49,0,0,0-.06-.26l-1-1.56c-.12-.2.26-.34.34-.25l1,1.56s.06.1.09.1c.36.06.48.35.62.61a.7.7,0,0,1,.09.27.3.3,0,0,1-.06.22c-.16.15-.13.31,0,.5l6.07,9.74a12.31,12.31,0,0,1-4.25.48,3.31,3.31,0,0,1-.68,1,3.33,3.33,0,0,0,.8-.73c.26,0,.65.13,1,.16a4.45,4.45,0,0,1-1,1.36c-.21.2-.48.38-.38.7a16.09,16.09,0,0,0,1.07,1.5,6.82,6.82,0,0,1,1,.26,1.28,1.28,0,0,0,1.52.6c-1.47,0-1.36-1.47-.91-2.23,0,.71.31,1.3.76,1.37a2.06,2.06,0,0,1,.05-2.69c.09,1.21.47,1.84,1,2A2.19,2.19,0,0,1,55,71.43c.08,2.75,2.7,2.26,2.94,5.44a.82.82,0,0,0,.48-1.49,1.44,1.44,0,0,1-.76-.59c-.07-.11-.14-.32-.19-.44-.29-.82-1.1-.77-1.08-1s.15-.1.33-.1L55.19,71l-.08-.12c.19,0,.23-.14,0-.43l-5.78-9.27a3,3,0,0,1,1.55.24.79.79,0,0,1-.27-.46.27.27,0,0,1,.1-.31,1.55,1.55,0,0,0,.33-.33,1.2,1.2,0,0,1,1.29-.49c.72.2,1,1,.45,1.39-.28.6-.63.52-.7.79.14.06,1.13.79,1.19,1.1a2.64,2.64,0,0,0-.18,2c.19-2.44,1.72-3.64,3.21-3.64a3.38,3.38,0,0,1,1.06.17,2,2,0,0,1,.55.27,4.84,4.84,0,0,1,.65.57,1.53,1.53,0,0,0,1.05.66,2.77,2.77,0,0,1-.48.49.55.55,0,0,0-.2.39,1.39,1.39,0,0,1-.41.9.33.33,0,0,0-.08.12c-.17.46-.33.92-.49,1.39,0,.11,0,.27-.19.27a.72.72,0,0,1-.41-.12.6.6,0,0,1-.22-.68,1.11,1.11,0,0,0-.09-.73,6,6,0,0,1-.18-.78c-.41-.14-1.17.7-.59,1.41a5.55,5.55,0,0,1,.78,1.87,1,1,0,0,1-.84.19,3.63,3.63,0,0,1-3-2.25c0,1.59,1.34,2.76,3.37,2.65a.8.8,0,0,0,.76.63,2.7,2.7,0,0,0,0-1.06c0-.14,0-.21.18-.24a14.86,14.86,0,0,0,1.51-.24c.44-.15.64-.06.92.45a4.11,4.11,0,0,0,.89,1.08l.41.37a.85.85,0,0,1,.27.59,8.67,8.67,0,0,0,0,1.12c-.1.24-.8,0-.91-.28C60.6,70.63,60.94,69.95,60.58,69.58ZM72.67,30.06a10.11,10.11,0,0,1-3,4.56c-.13.13,0,.13.09.09,6.41-1.65,7.53,1.48,7.52,1.59s.07.17.16.06S79.64,34,78.11,32,72.67,30.06,72.67,30.06Zm.22,1.6a5,5,0,0,0,.43-.85c.49,0,1.35.16,1.35.72A3.28,3.28,0,0,0,72.89,31.66Zm6,7.19c.07-.08,0-.09-.06-.06s-1.3.74-4-1a17.54,17.54,0,0,0-5.9-2.58s-1,.7-2,1.48c2.54.21,4.53,1.7,4.76,2.21,0,0,.07,0,.09,0a2,2,0,0,0-.09-1.46s1.18.7,3.47,2S78.52,39.32,78.89,38.85Zm-21.47-9a4,4,0,0,1-2.28.44A4.35,4.35,0,0,0,58,31.79a4.47,4.47,0,0,1-2,1.29,4.45,4.45,0,0,0,2.86.3c-.77,1.12-2.3,2.37-3.47,2.33,1.38,1,3.94.67,6-1.09a7.54,7.54,0,0,1-.27,3.24c.88-.19,2.24-1.67,2.74-2.46a5.83,5.83,0,0,1,.72,2.19c1.59-2.07,5.6-3.21,7.08-8,.14-.45,0-.71-.45-.71l-7.36,0a19.71,19.71,0,0,1-8.49-1.63A5.41,5.41,0,0,0,57.42,29.85Zm11.47.48c.59,0,.53.34.36.62l-.72,1.14a5.05,5.05,0,0,0-1.71-1c-1.14-.44-1.46-.51-1.46-.74ZM42.5,37.49a4.46,4.46,0,0,0-.18,2.22,13,13,0,0,1,.87,6,12.76,12.76,0,0,0,2-4.79,29.25,29.25,0,0,1,2.17,2.39c.11-.84.29-1.87.46-2.62a12.13,12.13,0,0,0,4,2.19,19.29,19.29,0,0,0-2.26-5.54,6,6,0,0,1-4-1,8,8,0,0,0,1,2.63A4.32,4.32,0,0,1,42.5,37.49Zm21,0A4.32,4.32,0,0,1,59.45,39a8,8,0,0,0,1-2.63,6,6,0,0,1-4,1,19.3,19.3,0,0,0-2.26,5.54,12.13,12.13,0,0,0,4-2.19c.16.75.35,1.78.46,2.62a29.2,29.2,0,0,1,2.17-2.39,12.75,12.75,0,0,0,2,4.79,13,13,0,0,1,.87-6A4.46,4.46,0,0,0,63.5,37.49ZM47.35,48.15a10.68,10.68,0,0,1,1.56,3.59,10.87,10.87,0,0,0,1.88-3.81A19,19,0,0,1,53,51.31a19,19,0,0,1,2.21-3.38,10.87,10.87,0,0,0,1.88,3.81,10.68,10.68,0,0,1,1.56-3.59,6,6,0,0,0,4.76,4.36C62,50.76,62,47.75,62.06,46.75a16.27,16.27,0,0,1-1.83-3.49,18.89,18.89,0,0,0-2.48,3.11,26.66,26.66,0,0,0-.37-3.72A9.47,9.47,0,0,1,54,44.22a7.55,7.55,0,0,0-1,2.62,7.56,7.56,0,0,0-1-2.62,9.47,9.47,0,0,1-3.41-1.57,26.7,26.7,0,0,0-.37,3.72,18.89,18.89,0,0,0-2.48-3.11,16.24,16.24,0,0,1-1.83,3.49c.1,1,0,4-1.35,5.76A6,6,0,0,0,47.35,48.15ZM27.9,73.36c1.2-.76,2-2.13,2.83-3.81a12.08,12.08,0,0,1-2,.57c-.72,1.33-1.73.81-1.76.63a6.2,6.2,0,0,0,.66-.88A19.15,19.15,0,0,1,26.79,68a12.24,12.24,0,0,1-4.48,5C23.24,74.23,26.11,74.48,27.9,73.36Zm3.72-3.49c-.85,1.73-.65,4.4,2.07,4.48a5.37,5.37,0,0,1,1.61-4.48,8.12,8.12,0,0,0-2.14,1.22,3.26,3.26,0,0,0-.24,1c-.57.1-.88-.32-.65-1.2A3.93,3.93,0,0,1,31.62,69.87Zm-13.46,2a5.17,5.17,0,0,0,1.19-.14c2.63-.62,5.13-2.78,6.61-4.6a13.44,13.44,0,0,1-2.66.52,5.92,5.92,0,0,1-1.18,1,1.6,1.6,0,0,1-.77.21,1.23,1.23,0,0,1-1.06-.59,7.65,7.65,0,0,0,2-1.34A10,10,0,0,1,22,64.76a18.3,18.3,0,0,1-8.67,4.31A5.82,5.82,0,0,0,18.16,71.85ZM12.9,67.61l.41,0a19.44,19.44,0,0,0,8.05-3.36,14.46,14.46,0,0,1-3.26.06,7.51,7.51,0,0,1-2.62,1.09c-1.93.23-2.13-.91-2.13-.91a14.27,14.27,0,0,0,4-1.16A15.75,15.75,0,0,1,18,60.79,27.73,27.73,0,0,1,7.26,63.54C7.84,64.86,10.07,67.61,12.9,67.61Zm.42-9.35A16,16,0,0,1,15,56a30.69,30.69,0,0,1-7.06.76,29.27,29.27,0,0,1-4.83-.34,6.13,6.13,0,0,0,5.53,5.34l.62,0a30.75,30.75,0,0,0,8.28-1.71,22.68,22.68,0,0,1-3.84-.77,19.27,19.27,0,0,1-3.81.57c-1.61-.08-1.78-1.27-1.78-1.27A24.87,24.87,0,0,0,13.33,58.26ZM4.68,54.88a21.63,21.63,0,0,0,5.86.65,32.58,32.58,0,0,0,4.24-.3,21.6,21.6,0,0,1-4.09-1.77,19.13,19.13,0,0,1-4.36-.41c-1.73-.51-1.71-1.65-1.68-1.9a22.72,22.72,0,0,0,5.93,1.24,18,18,0,0,1,2.9-2.08A33.2,33.2,0,0,1,.09,47C-.64,52.76,3.4,54.49,4.68,54.88ZM14.5,43A11.67,11.67,0,0,1,13,38.54a23,23,0,0,1-5.86-5.88c-.8-1.33-.5-2.49.06-2.89.43,1.44,3.24,5.48,5.78,7.5a14.75,14.75,0,0,1,.6-3.9A44.08,44.08,0,0,1,6.56,23.14,8.36,8.36,0,0,0,3.73,28.2c-.38,2.56.48,5.18,2.56,7.81A38.75,38.75,0,0,0,14.5,43Zm-.85,6.5a15,15,0,0,1-4.19-3.58,21.12,21.12,0,0,1-5-2.48c-1.49-1.2-1-2.28-.84-2.49a23.36,23.36,0,0,0,6.16,4,21.59,21.59,0,0,1,4.71-1C9.45,42,4,38.38,1.21,35c-.57,1.07-2.9,6.11,1.47,10.24C5,47.4,9.72,48.91,13.65,49.5ZM79.21,68a19.08,19.08,0,0,1-.88,1.87,6.2,6.2,0,0,0,.66.88c0,.19-1,.7-1.76-.63a12.07,12.07,0,0,1-2-.57c.87,1.68,1.63,3.05,2.83,3.81,1.79,1.12,4.66.87,5.59-.37A12.24,12.24,0,0,1,79.21,68Zm-4.83,1.87a3.92,3.92,0,0,1-.65,1c.24.88-.08,1.3-.65,1.2a3.25,3.25,0,0,0-.24-1,8.12,8.12,0,0,0-2.14-1.22,5.37,5.37,0,0,1,1.61,4.48C75,74.27,75.23,71.6,74.38,69.87Zm9.36-2.92a7.65,7.65,0,0,0,2,1.34,1.23,1.23,0,0,1-1.06.59,1.6,1.6,0,0,1-.77-.21,5.92,5.92,0,0,1-1.18-1A13.44,13.44,0,0,1,80,67.11c1.49,1.81,4,4,6.61,4.6a5.18,5.18,0,0,0,1.19.14,5.82,5.82,0,0,0,4.83-2.77A18.3,18.3,0,0,1,84,64.76,10.08,10.08,0,0,1,83.74,66.94Zm4.87-3.64a14.27,14.27,0,0,0,4,1.16s-.2,1.15-2.13.91a7.51,7.51,0,0,1-2.62-1.09,14.46,14.46,0,0,1-3.26-.06,19.44,19.44,0,0,0,8.05,3.36l.41,0c2.83,0,5.07-2.75,5.64-4.07A27.73,27.73,0,0,1,88,60.79,15.75,15.75,0,0,1,88.61,63.31ZM91,56a16,16,0,0,1,1.67,2.22,24.87,24.87,0,0,0,5.22.38s-.17,1.19-1.78,1.27a19.27,19.27,0,0,1-3.81-.57,22.69,22.69,0,0,1-3.84.77,30.75,30.75,0,0,0,8.28,1.71l.62,0a6.13,6.13,0,0,0,5.53-5.34,29.27,29.27,0,0,1-4.83.34A30.7,30.7,0,0,1,91,56Zm14.91-9a33.2,33.2,0,0,1-13.38,3.29,18,18,0,0,1,2.9,2.08,22.71,22.71,0,0,0,5.93-1.24c0,.26.06,1.39-1.68,1.9a19.13,19.13,0,0,1-4.36.41,21.6,21.6,0,0,1-4.09,1.77,32.59,32.59,0,0,0,4.24.3,21.64,21.64,0,0,0,5.86-.65C102.6,54.49,106.64,52.76,105.91,47ZM98.75,29.77c.57.4.86,1.56.06,2.89A23,23,0,0,1,93,38.54,11.67,11.67,0,0,1,91.5,43a38.74,38.74,0,0,0,8.21-7c2.08-2.62,2.95-5.25,2.56-7.81a8.35,8.35,0,0,0-2.83-5.06,44.08,44.08,0,0,1-7.07,10.23,14.75,14.75,0,0,1,.6,3.9C95.51,35.24,98.32,31.21,98.75,29.77ZM96.21,44.91a23.36,23.36,0,0,0,6.16-4c.17.22.64,1.3-.84,2.49a21.12,21.12,0,0,1-5,2.48,15,15,0,0,1-4.19,3.58c3.93-.59,8.67-2.09,11-4.27,4.37-4.13,2-9.17,1.47-10.24-2.83,3.39-8.24,7-13.29,8.9A21.59,21.59,0,0,1,96.21,44.91Zm-11.75-5.8C82.82,42.76,78.66,46,76,47.65a2,2,0,0,0-.39,2.78c3.66,5.85-3,10.21-9,7.31a3,3,0,0,0,2.82-2,3.13,3.13,0,0,1-2.63-.29c.77-.39,1-.78,1-1.15-1,.57-2.89.64-3.46-.31a6.74,6.74,0,0,1-5.52-3.16A16.55,16.55,0,0,0,58,54.09a8.9,8.9,0,0,1-3.1-3.55,13.13,13.13,0,0,0-1.95,4,13.13,13.13,0,0,0-1.95-4A8.9,8.9,0,0,1,48,54.09a16.54,16.54,0,0,0-.74-3.27A6.74,6.74,0,0,1,41.69,54c-.57,1-2.51.88-3.46.31,0,.37.22.76,1,1.15a3.13,3.13,0,0,1-2.63.29,3,3,0,0,0,2.82,2c-6,2.9-12.67-1.46-9-7.31A2,2,0,0,0,30,47.65c-2.69-1.63-6.84-4.89-8.48-8.55-.19,1.49,0,5.19,1.62,7.49a21.8,21.8,0,0,0-3.82,1.85,21.62,21.62,0,0,0,3.24,2.66,24,24,0,0,0-2.85,3,23.87,23.87,0,0,0,4,1.52,16,16,0,0,0-1.82,3.83,26.2,26.2,0,0,0,4.4.15,16.52,16.52,0,0,0,.08,3.92,13.64,13.64,0,0,0,4-1.26,15,15,0,0,0,1.21,3.27,5.48,5.48,0,0,1,4.7-1.44A6,6,0,0,1,40.53,68V57.08a.85.85,0,0,1,1-.94h23a.85.85,0,0,1,1,.94V68a6,6,0,0,1,4.3-3.89,5.48,5.48,0,0,1,4.7,1.44,15,15,0,0,0,1.21-3.27,13.64,13.64,0,0,0,4,1.26,16.53,16.53,0,0,0,.08-3.92,15.76,15.76,0,0,0,4.4-.15,16,16,0,0,0-1.82-3.83,19,19,0,0,0,4-1.52,24,24,0,0,0-2.85-3,21.65,21.65,0,0,0,3.24-2.66,21.82,21.82,0,0,0-3.82-1.85C84.5,44.3,84.65,40.6,84.46,39.11ZM42.63,27.61,42.5,28c4,0,7.89-1.32,8.92-5.93H48.33C47.79,25.34,45.76,27.61,42.63,27.61Zm-17.38-7.5a4.64,4.64,0,0,1,3.06,3.47c.86,3,3,4.4,5.24,4.4l-.14-.41c-1.29-.15-3.11-1.92-3.45-5.2s-1.18-3.73-1.18-3.73C27.91,18.07,25.73,19.6,25.25,20.11Zm-6.43,1.33c1.83-.06,3.07.5,5.37-1.52,2.72-2.39,4-2,4-2-1.39-.87-3.33-1.26-4-.75A24.1,24.1,0,0,1,21.13,20c-2.13,1.35-4.32,1-4.42,2.26h.06S17,21.5,18.82,21.44Zm1.69,7.91a5.54,5.54,0,0,1,1.22,3.23A5.61,5.61,0,0,0,22,27.83c-1.1-2.45-3.35-4.33-1.14-5.76-1.35,0-2.81-.29-3.45.59-.2.27-.38,1,.29,1.92.85,1.23,3,4.08,1.24,6A2,2,0,0,0,20.51,29.36ZM34.28,28h7.56s.19-.44.43-1.08H33.86C34.09,27.53,34.28,28,34.28,28ZM38.8,17.65a.73.73,0,1,0-.73.72A.72.72,0,0,0,38.8,17.65Zm3.77,8.43a13.46,13.46,0,0,0,.69-3.17c0-1.31-.73-2.76-3.37-3.2,0,1.58-.8,5.45-1.76,5.45H38c-1,0-1.76-3.84-1.76-5.45-2.65.44-3.4,1.89-3.4,3.2a13.45,13.45,0,0,0,.69,3.17Zm-4.5-2c.5,0,.91-2.53.91-3.79,0-.69-.41-1.14-.91-1.14s-.91.45-.91,1.14C37.16,21.54,37.57,24.07,38.07,24.07ZM37.59,16h1l-.12-1.2,1.21.12v-1L38.44,14l.12-1.2h-1l.12,1.2-1.21-.12v1l1.21-.12ZM57.67,22H54.59c1,4.61,4.9,5.93,8.92,5.93l-.14-.34C60.24,27.61,58.21,25.34,57.67,22Zm14.78,6c2.22,0,4.38-1.42,5.24-4.4a4.64,4.64,0,0,1,3.06-3.47c-.48-.51-2.66-2-3.53-1.46,0,0-.84.43-1.18,3.73s-2.16,5-3.45,5.2Zm9.36-8.06c2.31,2,3.54,1.46,5.37,1.52s2,.82,2,.82h.06C89.19,21,87,21.36,84.87,20a24.08,24.08,0,0,1-3.08-2.81c-.67-.5-2.6-.12-4,.75C77.8,17.95,79.09,17.54,81.81,19.93Zm6.82,2.74c-.64-.88-2.1-.58-3.45-.59,2.2,1.43,0,3.31-1.14,5.76a5.61,5.61,0,0,0,.24,4.75,5.55,5.55,0,0,1,1.22-3.23,2,2,0,0,0,1.61,1.2c-1.75-1.9.38-4.75,1.24-6C89,23.62,88.83,22.94,88.63,22.67ZM71.72,28s.19-.44.42-1.08H63.74c.24.64.42,1.08.42,1.08ZM68.65,17.65a.73.73,0,1,0-.73.72A.72.72,0,0,0,68.65,17.65Zm3.8,8.43a13.45,13.45,0,0,0,.69-3.17c0-1.31-.75-2.76-3.4-3.2,0,1.61-.8,5.45-1.76,5.45h-.11c-1,0-1.76-3.87-1.76-5.45-2.64.45-3.37,1.89-3.37,3.2a13.47,13.47,0,0,0,.69,3.17Zm-4.53-2c.5,0,.91-2.53.91-3.79,0-.69-.41-1.14-.91-1.14S67,19.6,67,20.28C67,21.54,67.42,24.07,67.93,24.07ZM67.44,16h1l-.12-1.2,1.21.12v-1L68.29,14l.12-1.2h-1l.12,1.2-1.21-.12v1l1.21-.12ZM18,44.79a34,34,0,0,0-7.17,1A22.71,22.71,0,0,0,17,50a20.55,20.55,0,0,0-5.14,2.85,25.89,25.89,0,0,0,5.92,2.1,19.54,19.54,0,0,0-3.23,3.6,29,29,0,0,0,5.25.76,15.12,15.12,0,0,0-1.23,4,22.87,22.87,0,0,0,4.67-.33,15.34,15.34,0,0,0,.11,3.65,22.92,22.92,0,0,0,3.93-1,18.59,18.59,0,0,0,1.42,3.31,12.58,12.58,0,0,0,3.13-1,15.4,15.4,0,0,0,1.1,2.08,4.18,4.18,0,0,1,7.22,2.54c-.31,2-3.28,1.92-4.85,2.87-2.06,1.26-1.7,4.17-3.82,4.61,2,1.22,2.59-1.07,4.67-1.14a13.11,13.11,0,0,0,0,4.35A6.17,6.17,0,0,1,39,82a8.35,8.35,0,0,0-.06,3.46c.55-.4,2.61-2.13,7.51-1,.59.13-3.32,0-2.83,1.2a3.63,3.63,0,0,1,0,3,2.18,2.18,0,0,0,.71.11,3.85,3.85,0,0,0,3.09-1.58,2.32,2.32,0,0,1-1,3.1,3.1,3.1,0,0,0,3-1.87A6.45,6.45,0,0,0,51,90.7a4.22,4.22,0,0,0,2-2,4.22,4.22,0,0,0,2,2,6.45,6.45,0,0,0,1.67-2.33,3.1,3.1,0,0,0,3,1.87,2.32,2.32,0,0,1-1-3.1,3.85,3.85,0,0,0,3.09,1.58,2.18,2.18,0,0,0,.71-.11,3.63,3.63,0,0,1,0-3c.49-1.22-3.43-1.07-2.83-1.2,4.9-1.11,7,.62,7.51,1A8.35,8.35,0,0,0,67,82a6.18,6.18,0,0,1,2.84,1.17,13.11,13.11,0,0,0,0-4.35c2.08.07,2.66,2.36,4.67,1.14-2.12-.45-1.76-3.36-3.82-4.61-1.57-1-4.54-.84-4.85-2.87a4.18,4.18,0,0,1,7.22-2.54,15.44,15.44,0,0,0,1.1-2.08,12.58,12.58,0,0,0,3.13,1,18.6,18.6,0,0,0,1.42-3.31,22.93,22.93,0,0,0,3.93,1,15.34,15.34,0,0,0,.11-3.65,22.87,22.87,0,0,0,4.67.33,15.1,15.1,0,0,0-1.23-4,29,29,0,0,0,5.25-.76,19.56,19.56,0,0,0-3.23-3.6,25.9,25.9,0,0,0,5.92-2.1A20.56,20.56,0,0,0,89,50a22.71,22.71,0,0,0,6.18-4.21,34,34,0,0,0-7.17-1c4.06-2.67,4.19-8.47,3-11.62-.79,1.91-3.39,5-5.08,6.74a13.22,13.22,0,0,1-1.32,6.21,17.41,17.41,0,0,1,4,2,24.37,24.37,0,0,1-3.34,3,33.48,33.48,0,0,1,2.91,3.33,19.4,19.4,0,0,1-4,1.81,16.56,16.56,0,0,1,1.46,4.15,28.34,28.34,0,0,1-4.55.3,19.6,19.6,0,0,1-.32,4.26,14.11,14.11,0,0,1-4.31-1.15,13.53,13.53,0,0,1-1.59,3.43c-5-5.22-9.39-.3-9.39,4.3V77.9c0,3-1,4.32-3.77,4.32H58.08A5.47,5.47,0,0,0,53,84.9a5.47,5.47,0,0,0-5.08-2.68H44.3c-2.8,0-3.77-1.35-3.77-4.32V71.63c0-4.6-4.41-9.52-9.39-4.3a13.52,13.52,0,0,1-1.59-3.43,14.11,14.11,0,0,1-4.31,1.15,19.57,19.57,0,0,1-.32-4.26,28.34,28.34,0,0,1-4.55-.3,16.57,16.57,0,0,1,1.46-4.15,19.41,19.41,0,0,1-4-1.81A33.44,33.44,0,0,1,20.7,51.2a24.34,24.34,0,0,1-3.34-3,17.41,17.41,0,0,1,4-2,13.22,13.22,0,0,1-1.33-6.21c-1.68-1.69-4.29-4.83-5.08-6.74C13.82,36.32,13.95,42.12,18,44.79ZM6.8,74.72l-.37.38s.76,1,1.37.59c.35-.62-.64-1.34-.64-1.34Z"/></g></g>
  </symbol>
  <symbol id="shield" viewBox="0 0 87 105">
    <path  d="M84.8,18.6c-6.8,0-11.9-4-17.4-8.2C61.2,5.5,54.1,0,43.5,0C32.9,0,25.8,5.5,19.6,10.4
  		C14.1,14.6,9,18.6,2.2,18.6c-1.2,0-2.2,1-2.2,2.2c0,25.5,3.2,42.5,10.3,55.1c7,12.5,17.5,20.3,32.2,28.8c0.3,0.2,0.7,0.3,1.1,0.3
  		s0.8-0.1,1.1-0.3c14.6-8.5,25.1-16.3,32.2-28.8C83.8,63.3,87,46.3,87,20.8C87,19.6,86,18.6,84.8,18.6z M43.5,100.3
  		C17.3,84.9,4.7,71.6,4.4,22.9c7.2-0.7,12.6-4.9,17.9-9c6-4.6,12.2-9.5,21.3-9.5c9.1,0,15.3,4.8,21.3,9.5c5.3,4.1,10.7,8.3,17.9,9
  		C82.3,71.6,69.7,84.9,43.5,100.3z"/>
  	<path  d="M17.8,25c-0.6-1.1-1.9-1.5-2.9-0.9c-0.3,0.1-0.5,0.3-0.8,0.4c-1.1,0.5-1.5,1.9-1,2.9c0.9,1.8,2.6,1.1,2.9,1
  		c0.3-0.2,0.6-0.3,0.9-0.5C17.9,27.4,18.3,26,17.8,25z"/>
  	<path  d="M75.2,42.1c0.1,0,0.1,0,0.2,0c1.1,0,2.1-0.9,2.2-2c0-0.3,0-0.6,0.1-0.8c0.1-1.2-0.8-2.3-2-2.4
  		c-1.2-0.1-2.2,0.8-2.4,2c0,0.3,0,0.5-0.1,0.8C73.1,41,74,42,75.2,42.1z"/>
  	<path  d="M22.1,24.2c0.4,0,0.9-0.1,1.3-0.4c1.3-0.9,2.5-1.9,3.7-2.8c5.6-4.3,10.3-7.9,16.5-7.9c1.2,0,2.2-1,2.2-2.2
  		c0-1.2-1-2.2-2.2-2.2c-7.6,0-13.2,4.3-19.1,8.8c-1.2,0.9-2.4,1.8-3.6,2.7c-1,0.7-1.2,2.1-0.5,3.1C20.7,23.9,21.4,24.2,22.1,24.2z"
  		/>
  	<path  d="M43.5,90.1C37.9,86.6,31.2,82,26.1,76c-0.8-0.9-2.1-1-3.1-0.3c-0.9,0.8-1,2.2-0.3,3.1
  		c5.8,6.9,13.5,12,19.5,15.7c0,0,0,0,0,0c0.1,0,0.1,0.1,0.2,0.1c0,0,0.1,0,0.1,0c0,0,0.1,0,0.1,0.1c0,0,0.1,0,0.1,0c0,0,0.1,0,0.1,0
  		c0,0,0.1,0,0.1,0c0.1,0,0.1,0,0.2,0c0,0,0.1,0,0.1,0c0,0,0,0,0,0c0,0,0,0,0,0c0,0,0.1,0,0.1,0c0.1,0,0.1,0,0.2,0c0,0,0.1,0,0.1,0
  		c0,0,0.1,0,0.1,0c0,0,0.1,0,0.1,0c0,0,0.1,0,0.1-0.1c0,0,0.1,0,0.1,0c0.1,0,0.1-0.1,0.2-0.1c0,0,0,0,0,0c6-3.7,13.7-8.8,19.5-15.7
  		c6.6-7.8,10.8-18.4,12.7-32.4c0.2-1.2-0.7-2.3-1.9-2.5c-1.2-0.2-2.3,0.7-2.5,1.9C70.7,59,66.9,68.8,60.8,76
  		C55.8,82,49,86.6,43.5,90.1z"/>
  	<path  d="M57.5,27.4L34.8,50.2l-5.4-5.4c-1.3-1.3-3.1-2.1-5-2.1c-1.9,0-3.7,0.7-5,2.1c-2.8,2.8-2.8,7.3,0,10.1
  		l10.4,10.5c0,0,0.3,0.2,0.3,0.3c0,0,2.6,2.5,4.7,2.5c2.2,0,5.1-2.8,5.1-2.8l27.7-27.8c2.8-2.8,2.8-7.3,0-10.1
  		c-1.3-1.3-3.1-2.1-5-2.1C60.6,25.3,58.9,26,57.5,27.4z M64.5,34.3c0,0-27.7,27.9-27.7,27.9c0,0-1.2,0.9-2.1,0.9
  		c-0.8,0-1.6-0.8-1.6-0.8L22.5,51.7c-1.1-1.1-1.1-2.8,0-3.9c0.6-0.6,1.4-0.9,2.3-0.8c0.6,0.1,1.2,0.4,1.7,0.9l6.8,6.9
  		c0.4,0.4,1,0.6,1.5,0.6c0.6,0,1.1-0.2,1.5-0.6l24.2-24.4c0.5-0.5,1.2-0.8,1.9-0.8c0.7,0,1.4,0.3,1.9,0.8
  		C65.5,31.5,65.5,33.3,64.5,34.3z"/>
  </symbol>
  <symbol id="wash" viewBox="0 0 80 105">
      <g ><g ><g ><path  d="M73.62,0H6.38A6.41,6.41,0,0,0,0,6.42V98.58A6.41,6.41,0,0,0,6.38,105H73.62A6.41,6.41,0,0,0,80,98.58V6.42A6.41,6.41,0,0,0,73.62,0ZM29.57,3.5H50.43V21H29.57ZM3.48,6.42A2.92,2.92,0,0,1,6.38,3.5h19.7V21H3.48Zm73,92.16a2.92,2.92,0,0,1-2.9,2.92H6.38a2.92,2.92,0,0,1-2.9-2.92V24.5h73Zm0-77.58H53.91V3.5h19.7a2.92,2.92,0,0,1,2.9,2.92Z"/><path  d="M15.66,5.25a7,7,0,1,0,7,7A7,7,0,0,0,15.66,5.25Zm0,10.5a3.5,3.5,0,1,1,3.48-3.5A3.49,3.49,0,0,1,15.66,15.75Z"/><path  d="M64.36,5.25a7,7,0,1,0,7,7A7,7,0,0,0,64.36,5.25Zm0,10.5a3.5,3.5,0,1,1,3.48-3.5A3.49,3.49,0,0,1,64.36,15.75Z"/><path  d="M8.7,63A31.48,31.48,0,0,0,19.46,86.7a1.72,1.72,0,0,0,.66.61A31,31,0,0,0,40,94.5,31.5,31.5,0,1,0,8.7,63Zm59.13,0A27.83,27.83,0,1,1,40,35,27.95,27.95,0,0,1,67.83,63Z"/><path  d="M15.7,63a24.42,24.42,0,0,0,3.57,12.71,1.71,1.71,0,0,0,.51.85,24.47,24.47,0,0,0,2.12,2.72l0,.07,1,1a24.23,24.23,0,0,0,9.83,6l.1,0c.66.2,1.33.37,2,.52l.35.09c.63.13,1.26.22,1.9.29l.52.08c.81.08,1.63.12,2.45.12.47,0,.93,0,1.39-.07a1.57,1.57,0,0,0,.35.07,1.7,1.7,0,0,0,.58-.12A24.49,24.49,0,1,0,15.7,63Zm44.85,3.86c-.05.27-.11.55-.17.82s-.18.75-.29,1.12-.15.53-.24.79-.25.73-.39,1.08-.19.5-.3.75-.33.71-.51,1.06-.22.46-.35.68-.43.73-.66,1.09c-.12.18-.22.37-.34.55-.34.5-.7,1-1.09,1.46l-.06.08q-.61.74-1.28,1.42c-.15.15-.31.29-.47.44-.31.29-.62.59-.94.86s-.39.31-.59.47-.61.48-.93.7l-.67.44c-.31.2-.63.4-1,.59l-.72.39c-.33.17-.67.34-1,.49l-.76.33c-.35.14-.71.27-1.07.4l-.77.26c-.38.11-.77.21-1.16.3l-.76.18c-.43.09-.87.15-1.32.2l-.66.09A20.12,20.12,0,0,1,40,84c-.68,0-1.35,0-2-.1l-.57-.08c-.48-.06-1-.13-1.43-.22l-.59-.13c-.46-.11-.92-.22-1.37-.36l-.52-.17c-.47-.16-.93-.32-1.39-.51l-.44-.19c-.47-.21-.94-.44-1.39-.68L30,81.38c-.47-.26-.93-.54-1.37-.84l-.3-.2c-.18-.13-.36-.27-.54-.4a1.71,1.71,0,0,0-1.18-1.1A15.72,15.72,0,0,1,29.83,76a1.72,1.72,0,0,0,1.52,1,1.73,1.73,0,0,0,1.55-2.51,15.5,15.5,0,0,1,5.4-1h5.22a24.06,24.06,0,0,0,12.21-3.33,1.73,1.73,0,0,0,1.7,1.58,1.74,1.74,0,0,0,.81-3.27,24.12,24.12,0,0,0,2.36-2C60.59,66.58,60.58,66.72,60.55,66.86ZM40,42A20.94,20.94,0,0,1,60.83,61.2a2.85,2.85,0,0,0-.87.72A20.69,20.69,0,0,1,43.53,70H38.31A19.1,19.1,0,0,0,24,76.45,21,21,0,0,1,40,42Z"/><path  d="M25.17,57.57a1.71,1.71,0,0,0,.77.18,1.73,1.73,0,0,0,1.56-1A13.83,13.83,0,0,1,40,49a1.75,1.75,0,0,0,0-3.5,17.29,17.29,0,0,0-15.58,9.72A1.76,1.76,0,0,0,25.17,57.57Z"/><ellipse  cx="24.34" cy="61.25" rx="1.74" ry="1.75"/><ellipse  cx="36.54" cy="80.5" rx="1.74" ry="1.75"/><ellipse  cx="41.74" cy="75.25" rx="1.74" ry="1.75"/><ellipse  cx="52.14" cy="75.25" rx="1.74" ry="1.75"/><ellipse  cx="46.94" cy="80.5" rx="1.74" ry="1.75"/></g></g></g>
  </symbol>
</svg>
