<svg width="152" height="118" viewBox="0 0 152 118" version="1.1" xmlns="http://www.w3.org/2000/svg" xmlns:xlink="http://www.w3.org/1999/xlink">
<title>&#208;&#152;&#208;&#186;&#208;&#190;</title>
<desc>Created using Figma</desc>
<g id="qwe" transform="translate(8020 -5904)">
<g id="&#208;&#152;&#208;&#186;&#208;&#190;">
<g id="Capa 1 3">
<g id="Group">
<g id="Vector">
<use xlink:href="#path0_fill" transform="translate(-7972 5933.08)" fill="#BDBDBD"/>
</g>
<g id="Vector">
<use xlink:href="#path1_fill" transform="translate(-7965.31 5918)" fill="#BDBDBD"/>
</g>
</g>
</g>
<g id="Layer 1">
<g id="Group">
<g id="Group">
<g id="Vector">
<use xlink:href="#path2_fill" transform="translate(-8020 5904)" fill="#E0E0E0"/>
</g>
</g>
</g>
</g>
<g id="Line 9">
<use xlink:href="#path3_stroke" transform="translate(-7941 5946)" fill="#E0E0E0"/>
</g>
<g id="Line 9">
<use xlink:href="#path4_stroke" transform="translate(-7939 5982)" fill="#E0E0E0"/>
</g>
<g id="Line 9">
<use xlink:href="#path5_stroke" transform="translate(-7977 5992)" fill="#E0E0E0"/>
</g>
<g id="Line 9">
<use xlink:href="#path4_stroke" transform="translate(-7977 5982)" fill="#E0E0E0"/>
</g>
<g id="Line 9">
<use xlink:href="#path6_stroke" transform="matrix(1 -2.44929e-16 2.44929e-16 1 -7920 5982)" fill="#E0E0E0"/>
</g>
<g id="Line 9">
<use xlink:href="#path6_stroke" transform="matrix(1 -2.44929e-16 2.44929e-16 1 -7959 5982)" fill="#E0E0E0"/>
</g>
<g id="Line 9">
<use xlink:href="#path6_stroke" transform="matrix(1 -2.44929e-16 2.44929e-16 1 -7956 5992)" fill="#E0E0E0"/>
</g>
<g id="Line 9">
<use xlink:href="#path7_stroke" transform="matrix(1 -2.44929e-16 2.44929e-16 1 -7977 5987)" fill="#E0E0E0"/>
</g>
<g id="Line 9">
<use xlink:href="#path8_stroke" transform="matrix(1 -2.44929e-16 2.44929e-16 1 -7948 5982)" fill="#E0E0E0"/>
</g>
<g id="Line 9">
<use xlink:href="#path8_stroke" transform="matrix(1 -2.44929e-16 2.44929e-16 1 -7963 5987)" fill="#E0E0E0"/>
</g>
<g id="Line 9">
<use xlink:href="#path8_stroke" transform="matrix(1 -2.44929e-16 2.44929e-16 1 -7945 5992)" fill="#E0E0E0"/>
</g>
<g id="Line 9">
<use xlink:href="#path9_stroke" transform="matrix(1 0 -4.93038e-32 1 -7954 5987)" fill="#E0E0E0"/>
</g>
<g id="Line 9">
<use xlink:href="#path10_stroke" transform="translate(-7941 5942)" fill="#E0E0E0"/>
</g>
<g id="Line 9">
<use xlink:href="#path11_stroke" transform="translate(-7941 5934)" fill="#E0E0E0"/>
</g>
<g id="Line 9">
<use xlink:href="#path12_stroke" transform="translate(-7929 5934)" fill="#E0E0E0"/>
</g>
</g>
</g>
<defs>
<path id="path0_fill" d="M 22.276 4.146C 21.631 2.715 17.701 1.477 17.701 1.477C 15.605 0.738 15.591 4.73022e-07 15.591 4.73022e-07C 11.467 8.125 8.339 0.0219998 8.339 0.0219998C 8.052 1.118 3.811 2.406 3.811 2.406C 2.573 2.883 2.048 3.597 2.048 3.597C 0.214 6.314 4.95911e-08 12.366 4.95911e-08 12.366C 0.0240001 13.746 0.618 13.89 0.618 13.89C 4.836 15.772 11.447 16.106 11.447 16.106C 18.239 16.249 23.182 14.177 23.182 14.177C 23.899 13.725 23.92 13.366 23.92 13.366C 24.421 9.031 22.276 4.146 22.276 4.146Z"/>
<path id="path1_fill" d="M 0.610311 10.786C 0.925311 13.398 3.17331 16.106 5.21331 16.106C 7.55731 16.106 9.78531 13.26 10.1323 10.786C 10.2643 10.692 10.4813 10.465 10.5603 9.949C 10.5603 9.949 11.0613 8.158 10.3983 8.35C 10.6303 7.659 11.3953 4.969 9.91031 3.297C 9.91031 3.297 9.21631 2.348 7.52531 1.845C 7.46631 1.796 7.40631 1.746 7.33731 1.698C 7.33731 1.698 7.37431 1.741 7.42931 1.816C 7.33331 1.789 7.23131 1.765 7.13031 1.741C 7.03931 1.645 6.93531 1.546 6.81931 1.441C 6.81931 1.441 6.92131 1.546 7.04431 1.721C 6.99731 1.711 6.95631 1.699 6.91031 1.691C 6.83331 1.574 6.74031 1.454 6.62131 1.332C 6.62131 1.332 6.67131 1.426 6.73631 1.574C 6.42431 1.345 5.79831 0.816 5.79831 0.224C 5.79831 0.224 5.40731 0.407 5.17831 0.741C 5.26831 0.466 5.41931 0.211 5.66531 0C 5.66531 0 5.40731 0.132 5.17031 0.418C 4.98531 0.522 4.56431 0.81 4.42231 1.322L 4.28831 1.254C 4.35431 1.109 4.44631 0.956 4.57231 0.802C 4.57231 0.802 4.38931 0.965 4.22931 1.225L 3.95831 1.089C 4.03931 0.938 4.14531 0.782 4.28931 0.63C 4.28931 0.63 4.14331 0.742 3.98931 0.931C 4.03231 0.755 4.02531 0.553 3.47731 1.153C 3.47731 1.153 1.00831 2.224 0.294311 4.441C 0.294311 4.441 -0.125689 5.442 0.431311 8.387C -0.359689 8.013 0.179311 9.948 0.179311 9.948C 0.260311 10.465 0.477311 10.691 0.610311 10.786ZM 5.09631 0.516C 4.97631 0.683 4.87231 0.891 4.82231 1.146L 4.73631 1.113C 4.80331 0.899 4.91631 0.693 5.09631 0.516Z"/>
<path id="path2_fill" d="M 151.046 34.8238C 150.071 33.0761 148.472 31.8124 146.546 31.2658L 129.629 26.4688C 128.301 26.0929 126.919 26.8628 126.542 28.1901C 126.166 29.5173 126.936 30.8982 128.264 31.275L 145.181 36.0721C 146.507 36.448 147.279 37.8319 146.903 39.1568L 126.455 111.185C 126.273 111.827 125.852 112.359 125.269 112.684C 124.686 113.009 124.012 113.088 123.395 112.913L 103.244 106.962L 113.453 106.962C 117.588 106.962 120.951 103.601 120.951 99.469L 120.951 7.49334C 120.951 3.36123 117.588 1.17717e-07 113.453 1.17717e-07L 38.5435 1.17717e-07C 34.4092 1.17717e-07 31.0462 3.36123 31.0462 7.49334L 31.0462 99.4696C 31.0462 103.602 34.4092 106.963 38.5435 106.963L 49.5857 106.963L 28.6279 112.906C 27.9857 113.088 27.3109 113.01 26.7279 112.685C 26.1451 112.36 25.7235 111.827 25.5412 111.185L 5.09372 39.1568C 4.71758 37.8316 5.49004 36.4483 6.81588 36.0721L 24.289 31.1172C 25.617 30.7407 26.3876 29.3594 26.0112 28.0322C 25.6345 26.705 24.2522 25.935 22.9249 26.3109L 5.45145 31.2658C 1.47452 32.394 -0.842886 36.5454 0.285535 40.5202L 20.7325 112.549C 21.2793 114.474 22.5434 116.072 24.2923 117.047C 25.4246 117.678 26.6723 118 27.9344 118C 28.6213 118 29.3127 117.904 29.992 117.712L 67.8972 106.963L 85.607 106.963L 122.006 117.712C 122.685 117.905 123.376 118 124.063 118C 125.325 118 126.573 117.678 127.705 117.047C 129.454 116.072 130.718 114.474 131.265 112.549L 151.712 40.5202C 152.259 38.5948 152.022 36.5718 151.046 34.8238ZM 85.9223 101.967L 38.5435 101.967C 37.1654 101.967 36.0444 100.847 36.0444 99.4696L 36.0444 7.49334C 36.0444 6.11597 37.1654 4.99556 38.5435 4.99556L 113.454 4.99556C 114.832 4.99556 115.953 6.11597 115.953 7.49334L 115.953 99.4696C 115.953 100.847 114.832 101.967 113.454 101.967L 85.9508 101.967C 85.9413 101.967 85.9318 101.967 85.9223 101.967Z"/>
<path id="path3_stroke" d="M 1 -2C 0.447715 -2 0 -1.55228 0 -1C 0 -0.447715 0.447715 0 1 0L 1 -2ZM 27 0C 27.5523 0 28 -0.447715 28 -1C 28 -1.55228 27.5523 -2 27 -2L 27 0ZM 1 0L 27 0L 27 -2L 1 -2L 1 0Z"/>
<path id="path4_stroke" d="M 1 -2C 0.447715 -2 0 -1.55228 0 -1C 0 -0.447715 0.447715 0 1 0L 1 -2ZM 15 0C 15.5523 0 16 -0.447715 16 -1C 16 -1.55228 15.5523 -2 15 -2L 15 0ZM 1 0L 15 0L 15 -2L 1 -2L 1 0Z"/>
<path id="path5_stroke" d="M 1 -2C 0.447715 -2 0 -1.55228 0 -1C 0 -0.447715 0.447715 0 1 0L 1 -2ZM 18 0C 18.5523 0 19 -0.447715 19 -1C 19 -1.55228 18.5523 -2 18 -2L 18 0ZM 1 0L 18 0L 18 -2L 1 -2L 1 0Z"/>
<path id="path6_stroke" d="M 1 -2C 0.447715 -2 0 -1.55228 0 -1C 0 -0.447715 0.447715 0 1 0L 1 -2ZM 8 0C 8.55229 0 9 -0.447715 9 -1C 9 -1.55228 8.55229 -2 8 -2L 8 0ZM 1 0L 8 0L 8 -2L 1 -2L 1 0Z"/>
<path id="path7_stroke" d="M 1 -2C 0.447715 -2 0 -1.55228 0 -1C 0 -0.447715 0.447715 0 1 0L 1 -2ZM 11 0C 11.5523 0 12 -0.447715 12 -1C 12 -1.55228 11.5523 -2 11 -2L 11 0ZM 1 0L 11 0L 11 -2L 1 -2L 1 0Z"/>
<path id="path8_stroke" d="M 1 -2C 0.447715 -2 0 -1.55228 0 -1C 0 -0.447715 0.447715 0 1 0L 1 -2ZM 6 0C 6.55228 0 7 -0.447715 7 -1C 7 -1.55228 6.55228 -2 6 -2L 6 0ZM 1 0L 6 0L 6 -2L 1 -2L 1 0Z"/>
<path id="path9_stroke" d="M 1 -2C 0.447715 -2 0 -1.55228 0 -1C 0 -0.447715 0.447715 0 1 0L 1 -2ZM 19 0C 19.5523 0 20 -0.447715 20 -1C 20 -1.55228 19.5523 -2 19 -2L 19 0ZM 1 0L 19 0L 19 -2L 1 -2L 1 0Z"/>
<path id="path10_stroke" d="M 1 -2C 0.447715 -2 0 -1.55228 0 -1C 0 -0.447715 0.447715 0 1 0L 1 -2ZM 14 0C 14.5523 0 15 -0.447715 15 -1C 15 -1.55228 14.5523 -2 14 -2L 14 0ZM 1 0L 14 0L 14 -2L 1 -2L 1 0Z"/>
<path id="path11_stroke" d="M 2 -4C 0.895431 -4 0 -3.10457 0 -2C 0 -0.895431 0.895431 0 2 0L 2 -4ZM 7 0C 8.10457 0 9 -0.895431 9 -2C 9 -3.10457 8.10457 -4 7 -4L 7 0ZM 2 0L 7 0L 7 -4L 2 -4L 2 0Z"/>
<path id="path12_stroke" d="M 2 -4C 0.895431 -4 0 -3.10457 0 -2C 0 -0.895431 0.895431 0 2 0L 2 -4ZM 16 0C 17.1046 0 18 -0.895431 18 -2C 18 -3.10457 17.1046 -4 16 -4L 16 0ZM 2 0L 16 0L 16 -4L 2 -4L 2 0Z"/>
</defs>
</svg>
